<svg xmlns="http://www.w3.org/2000/svg" style="filter: grayscale(100%);" viewBox="0 0 24 24"><path d="M22 13V7c0-1.654-1.346-3-3-3H5C3.346 4 2 5.346 2 7v10c0 1.654 1.346 3 3 3h14c1.654 0 3-1.346 3-3v-4Z" style="fill:#1677ff;fill-rule:evenodd"/><path d="M16.542 14.047c-.634-.215-1.486-.543-2.435-.889a12.97 12.97 0 0 0 1.324-3.373h-3.127V8.65h3.83v-.634h-3.83V6.121h-1.563c-.275 0-.275.273-.275.273v1.621H6.592v.634h3.874v1.136H7.268v.634h6.203a11.16 11.16 0 0 1-.893 2.202c-2.013-.67-4.162-1.213-5.51-.878-.864.214-1.42.597-1.746.998-1.5 1.839-.424 4.633 2.741 4.633 1.872 0 3.675-1.053 5.072-2.787 2.084 1.01 6.21 2.745 6.21 2.745V14.86s-.518-.042-2.803-.813m-8.775 2.257c-2.468 0-3.197-1.96-1.978-3.033.407-.363 1.151-.54 1.548-.58 1.466-.146 2.823.418 4.425 1.207-1.126 1.48-2.56 2.406-3.994 2.406" style="fill:#fff"/></svg>