<svg xmlns="http://www.w3.org/2000/svg" style="filter: grayscale(100%);" fill="none" viewBox="0 0 24 24"><path fill="#F1F1F1" d="M22 13V7c0-1.654-1.346-3-3-3H5C3.346 4 2 5.346 2 7v10c0 1.654 1.346 3 3 3h14c1.654 0 3-1.346 3-3v-4Z"/><path fill="#2F3133" d="M13.69 7.814c.396-.496.665-1.162.594-1.843-.58.029-1.29.383-1.7.88-.368.425-.694 1.119-.609 1.77.652.057 1.303-.325 1.714-.807Zm.587.936c-.947-.057-1.752.536-2.204.536-.452 0-1.144-.508-1.893-.495-.974.015-1.879.566-2.373 1.442-1.017 1.753-.268 4.353.72 5.781.481.706 1.06 1.484 1.823 1.456.72-.028 1.003-.466 1.879-.466.875 0 1.13.466 1.892.452.791-.014 1.286-.707 1.766-1.414.551-.805.777-1.582.791-1.625-.014-.014-1.525-.594-1.54-2.332-.014-1.456 1.187-2.148 1.244-2.191-.679-1.003-1.738-1.116-2.105-1.145Z"/></svg>