<svg xmlns="http://www.w3.org/2000/svg" style="filter: grayscale(100%);" viewBox="0 0 24 24"><g fill="none" fill-rule="evenodd"><path fill="#F7931A" d="M22 13V7a3 3 0 0 0-3-3H5a3 3 0 0 0-3 3v10a3 3 0 0 0 3 3h14a3 3 0 0 0 3-3v-4Z"/><path fill="#FFF" d="M14.45 10.8c-.29 1.18-2.1.58-2.68.44l.51-2.08c.59.15 2.48.42 2.17 1.65m-.32 3.35c-.32 1.29-2.5.59-3.2.41l.57-2.29c.71.18 2.97.53 2.63 1.88m2.38-3.34c.19-1.26-.77-1.93-2.09-2.39l.43-1.7-1.04-.26-.41 1.66-.84-.2.42-1.67L11.94 6l-.42 1.7c-.23-.04-.45-.1-.67-.15l-1.43-.36-.28 1.1s.77.19.76.2c.42.1.5.38.48.6l-.48 1.95.1.03a4.6 4.6 0 0 0-.1-.03l-.68 2.73c-.06.13-.19.32-.48.25l-.76-.2-.51 1.2 1.35.34.74.19-.43 1.73 1.04.25.43-1.7.82.2-.42 1.71 1.04.26.43-1.72c1.77.33 3.1.2 3.67-1.4.45-1.3-.03-2.04-.96-2.53.68-.16 1.2-.6 1.33-1.53"/></g></svg>