<?xml version="1.0" encoding="UTF-8"?>
<svg version="1.1" xmlns="http://www.w3.org/2000/svg" width="64" height="64">
<path d="M0 0 C6.65125514 5.17181708 10.04083363 11.67117323 11.2890625 19.9609375 C11.76352413 29.51343172 9.29631161 37.10895242 3.171875 44.5 C-2.73553027 50.1127366 -10.16764721 52.75229426 -18.22265625 53.0625 C-26.48816789 52.74418761 -33.60223017 49.99353416 -39.6875 44.33984375 C-45.87846518 37.17218686 -47.6014541 29.9853371 -47.5 20.73046875 C-46.80807078 12.82688285 -43.23573925 5.75621784 -37.22265625 0.5625 C-25.31966775 -7.40732708 -12.19520377 -7.88723196 0 0 Z M-38.625 10.33984375 C-42.64262463 15.92915528 -43.0017787 21.87418907 -42.22265625 28.5625 C-40.32723789 36.25866179 -35.53350385 41.02623169 -29.22265625 45.5625 C-23.58975252 48.43887637 -16.94972292 48.48040568 -10.859375 46.98046875 C-3.48357363 44.19065787 1.72604782 38.57962119 5.27734375 31.625 C6.59465761 23.55645261 6.46668163 16.52772986 1.77734375 9.5625 C-4.08283465 3.10184791 -9.25467977 -0.35321354 -18.03515625 -0.8125 C-27.23670376 -0.55038695 -32.88638192 3.32344192 -38.625 10.33984375 Z " fill="#9095A8" transform="translate(50.22265625,8.4375)"/>
<path d="M0 0 C0.73089844 0.25652344 1.46179688 0.51304688 2.21484375 0.77734375 C1.31883516 5.69536107 -1.60998223 8.15342737 -5.03515625 11.58984375 C-5.60878906 12.20021484 -6.18242188 12.81058594 -6.7734375 13.43945312 C-11.05912353 17.76906987 -11.05912353 17.76906987 -14.52734375 17.80859375 C-17.73716034 16.34251835 -19.60577873 14.53361531 -21.78515625 11.77734375 C-21.59765625 9.46484375 -21.59765625 9.46484375 -20.78515625 7.77734375 C-20.04265625 7.94234375 -19.30015625 8.10734375 -18.53515625 8.27734375 C-15.59509047 8.89660071 -15.59509047 8.89660071 -11.78515625 8.77734375 C-9.35787442 6.54980247 -7.27031203 4.12646957 -5.1015625 1.6484375 C-2.78515625 -0.22265625 -2.78515625 -0.22265625 0 0 Z " fill="#19234C" transform="translate(41.78515625,23.22265625)"/>
</svg>
