<svg xmlns="http://www.w3.org/2000/svg" viewBox="0 0 24 24" style="filter: grayscale(100%);"><g fill="none" fill-rule="evenodd"><path fill="#F6F6F6" d="M22 13V7a3 3 0 0 0-3-3H5a3 3 0 0 0-3 3v10a3 3 0 0 0 3 3h14a3 3 0 0 0 3-3v-4Z"/><path fill="#231F20" d="m14.23 10.45.73 1.85.74-1.85h.59l-1.2 2.82h-.28l-1.17-2.82h.59Zm-6.72-.04c.3 0 .58.1.8.3l-.27.37c-.14-.16-.27-.22-.44-.22-.23 0-.4.13-.4.3 0 .15.1.23.42.35.61.22.8.42.8.86 0 .53-.4.9-.96.9-.4 0-.7-.16-.95-.52l.35-.34c.12.24.33.37.58.37.24 0 .42-.17.42-.39a.33.33 0 0 0-.16-.28 2.23 2.23 0 0 0-.37-.16c-.5-.18-.68-.38-.68-.75 0-.45.37-.8.86-.8Zm2.54-.02c.23 0 .42.05.66.17v.63a.9.9 0 0 0-1.58.64c0 .55.39.95.93.95.24 0 .43-.1.65-.3v.63c-.25.11-.44.16-.68.16-.81 0-1.45-.63-1.45-1.44 0-.8.65-1.44 1.47-1.44Zm-6 .06c.87 0 1.48.57 1.48 1.38a1.38 1.38 0 0 1-1.49 1.37h-.78v-2.75Zm2.26 0v2.75h-.54v-2.75h.54Zm11.74 0v.47h-.99v.61h.95V12h-.95v.74h.99v.46h-1.52v-2.75h1.52Zm1.15 0c.62 0 .97.3.97.81 0 .43-.22.7-.62.78l.86 1.16h-.66l-.74-1.1h-.07v1.1h-.53v-2.75Zm-15.26.47H3.8v1.82h.14c.35 0 .57-.07.74-.22.18-.17.3-.43.3-.7a.92.92 0 0 0-.3-.68c-.18-.16-.4-.22-.74-.22Zm15.17-.03h-.17v.83h.16c.34 0 .52-.15.52-.43 0-.26-.18-.4-.51-.4Z"/><path fill="#F16122" d="M9.11 19.92h9.9a3 3 0 0 0 3-3v-4s-2.6 4.86-12.9 7m3.23-6.62a1.46 1.46 0 1 1 0-2.93 1.46 1.46 0 0 1 0 2.93Z"/></g></svg>