<?xml version="1.0" encoding="UTF-8"?>
<svg version="1.1" xmlns="http://www.w3.org/2000/svg" width="225" height="225">
<path d="M0 0 C4.29512087 0.41903618 7.943212 1.67514688 11.9140625 3.2421875 C14.01075981 4.00390899 16.07915271 4.55408595 18.25 5.0625 C21.1849743 5.79624357 23.41815814 6.49392558 26 8 C24.72341628 11.46501297 23.23378941 14.34839551 21.125 17.375 C15.58417728 25.06799093 15.58417728 25.06799093 13 34 C13.33 34.99 13.66 35.98 14 37 C17.48876522 38.74438261 21.18539944 38.45468149 25 38 C27.49515004 37.11549635 29.79351542 36.07313503 32.15234375 34.875 C34 34 34 34 36 34 C36.226875 33.443125 36.45375 32.88625 36.6875 32.3125 C39.80775498 26.8149079 45.24250844 22.20640256 51 19.6875 C56.68876537 18.3838246 60.6988889 20.668321 65.75 23.25 C66.36182129 23.56138916 66.97364258 23.87277832 67.60400391 24.19360352 C72.46579692 26.68330688 77.26310586 29.28067189 82 32 C82 32.66 82 33.32 82 34 C82.886875 34.268125 83.77375 34.53625 84.6875 34.8125 C87.7909666 35.9250635 90.31110685 37.10195778 93 39 C93 39.66 93 40.32 93 41 C93.9075 41.268125 94.815 41.53625 95.75 41.8125 C98.72991834 42.90131632 100.68590359 43.86391101 103 46 C103 46.66 103 47.32 103 48 C103.69480469 48.23203125 104.38960937 48.4640625 105.10546875 48.703125 C108.57740543 50.25870257 111.36278909 52.39257956 114.3125 54.75 C115.46295032 55.65830158 116.6139907 56.5658563 117.765625 57.47265625 C118.31927734 57.90980957 118.87292969 58.34696289 119.44335938 58.79736328 C121.43290042 60.33445224 123.49699023 61.75484379 125.5625 63.1875 C129.33204601 66.02866525 131.26304257 68.57865381 133 73 C132.45997918 76.44263275 131.34367666 78.45584528 129.5 81.375 C125.40787311 84.03488248 121.71702336 83.97547509 117 83 C114.15535841 81.60794135 111.67937994 79.96923967 109.0859375 78.15234375 C105.46738553 75.62851826 101.72977072 73.37517425 97.9375 71.125 C96.95390503 70.53537476 96.95390503 70.53537476 95.95043945 69.93383789 C92.52426834 67.87864467 92.52426834 67.87864467 89 66 C89 66.66 89 67.32 89 68 C89.88171875 68.26296875 90.7634375 68.5259375 91.671875 68.796875 C95.94587936 70.34193761 99.33075467 72.63843075 103.09765625 75.14453125 C105.9530731 77.03327654 105.9530731 77.03327654 108.93359375 78.51171875 C115.60051479 81.96338709 115.60051479 81.96338709 116.76171875 84.9765625 C116.95365126 88.51076799 116.11659307 90.76174459 114.5625 93.9375 C111.51682747 96.38889496 109.61531949 97.16720447 105.734375 97.3828125 C99.61268316 96.52577564 94.27054582 93.06917736 89 90 C88.30841797 89.59765137 87.61683594 89.19530273 86.90429688 88.78076172 C82.56953841 86.24027656 78.27464753 83.64022347 74 81 C77.34772706 83.66991565 80.95803418 85.73583138 84.6875 87.8125 C86.5483943 88.8747909 88.40640863 89.94199024 90.26416016 91.00976562 C91.80756973 91.89022543 93.36204583 92.75122206 94.91796875 93.609375 C97.17516449 94.94431429 99.12719032 96.16541093 101 98 C101.875 101.5625 101.875 101.5625 101 105 C99.0625 107.9375 99.0625 107.9375 96 110 C87.51110957 111.66994566 80.38341054 107.47882633 72.89355469 103.86962891 C70.63168914 102.83085053 68.31097387 101.92438955 66 101 C75.405 105.95 75.405 105.95 85 111 C83.94460224 115.22159105 83.19804773 116.27225341 80 119 C71.61948292 121.79350569 61.42427892 120.29352796 53.07421875 118.046875 C51 117 51 117 49.65234375 115.00390625 C49 113 49 113 49.875 111.1875 C50.431875 110.1046875 50.431875 110.1046875 51 109 C51.57134203 104.59250433 51.38294716 102.61032204 49 98.8125 C46.83299865 96.44680511 44.754968 95.35236825 41.8125 94.125 C38.26089853 92.5428016 38.26089853 92.5428016 37.078125 90.08203125 C36.5625 87.9375 36.5625 87.9375 36 84 C35.67 83.01 35.34 82.02 35 81 C32.67108904 79.97299556 32.67108904 79.97299556 29.9375 79.3125 C29.01839844 79.06113281 28.09929687 78.80976563 27.15234375 78.55078125 C26.44207031 78.36902344 25.73179688 78.18726563 25 78 C24.80083984 76.96939453 24.80083984 76.96939453 24.59765625 75.91796875 C24.42105469 75.01691406 24.24445313 74.11585938 24.0625 73.1875 C23.88847656 72.29417969 23.71445313 71.40085937 23.53515625 70.48046875 C23.02258847 67.88602829 23.02258847 67.88602829 22 65 C18.38186697 63.40802146 13.86231317 63.27533446 10 64 C7.24958334 66.41666771 7.24958334 66.41666771 5 69 C3.68 69 2.36 69 1 69 C-0.45703125 67.50390625 -0.45703125 67.50390625 -1.8125 65.5625 C-4.17280317 62.61660263 -4.8292558 62.05298958 -8.625 60.875 C-12.40559379 61.01502199 -13.16293452 61.73034761 -16 64 C-19.39982803 63.84134136 -20.75813311 63.22441258 -23.2734375 60.890625 C-24.31371094 59.58351563 -24.31371094 59.58351563 -25.375 58.25 C-26.08398438 57.38890625 -26.79296875 56.5278125 -27.5234375 55.640625 C-29 53 -29 53 -28.75634766 50.64477539 C-27.94547907 47.80935272 -26.8479777 45.5958183 -25.375 43.04296875 C-24.83746094 42.10267822 -24.29992187 41.1623877 -23.74609375 40.19360352 C-23.16988281 39.20158936 -22.59367187 38.2095752 -22 37.1875 C-20.81228135 35.11731293 -19.62478238 33.04699981 -18.4375 30.9765625 C-17.85226563 29.96110352 -17.26703125 28.94564453 -16.6640625 27.89941406 C-14.40992735 23.9718746 -12.20478423 20.01785987 -10 16.0625 C-2.27213021 2.27213021 -2.27213021 2.27213021 0 0 Z M82 62 C82.33 62.66 82.66 63.32 83 64 C83.66 63.67 84.32 63.34 85 63 C84.01 62.67 83.02 62.34 82 62 Z " fill="#00D9FF" transform="translate(54,62)"/>
<path d="M0 0 C3.33954313 4.15312092 5.95591783 8.74273921 7 14 C7.66 14 8.32 14 9 14 C9.69222656 15.31097656 9.69222656 15.31097656 10.3984375 16.6484375 C17.57076301 30.18704154 24.78163038 43.78410706 32.75 56.875 C34.40413805 61.01034513 35.26053353 64.63661471 34 69 C31.65826346 71.34173654 28.96655051 72.5868621 26 74 C24.74584494 74.76405439 23.49549264 75.53440482 22.25 76.3125 C19 78 19 78 15 78 C12.75 75 12.75 75 11 72 C7.92474501 73.1995788 7.92474501 73.1995788 6.1328125 75.84375 C4.73267616 78.5088371 3.09972831 79.87980808 0.75 81.75 C0.00234375 82.36359375 -0.7453125 82.9771875 -1.515625 83.609375 C-4.68276748 85.38217802 -6.41679985 85.55338998 -10 85 C-12.61328125 83.234375 -12.61328125 83.234375 -15.3125 80.75 C-22.73988335 74.16511868 -30.8192983 68.6016331 -39 63 C-39.87567627 62.39961914 -39.87567627 62.39961914 -40.76904297 61.78710938 C-47.37201159 57.27853529 -54.08834907 53.01770788 -61 49 C-61.5657373 48.66935547 -62.13147461 48.33871094 -62.71435547 47.99804688 C-64.57774021 46.91070243 -66.44450131 45.82939638 -68.3125 44.75 C-68.89950684 44.40839844 -69.48651367 44.06679687 -70.09130859 43.71484375 C-76.62721596 39.96617137 -80.25718713 38.45935686 -87.63671875 40.17578125 C-92.24880685 41.78429462 -94.42908502 45.25935353 -97.3125 49 C-100.86985579 53.37046569 -105.69510003 56.23170001 -111 58 C-112.89470816 58.0685495 -114.7916834 58.08480372 -116.6875 58.0625 C-117.68136719 58.05347656 -118.67523438 58.04445312 -119.69921875 58.03515625 C-120.83810547 58.01775391 -120.83810547 58.01775391 -122 58 C-123.31851037 52.72595852 -123.01770747 49.89026673 -120.359375 45.15625 C-118.31372202 41.91142114 -116.16777951 38.76139245 -113.91015625 35.66015625 C-112.59533006 33.82907928 -111.33460462 31.95833114 -110.12109375 30.05859375 C-105.7060118 23.36015629 -101.94547796 19.73229897 -94 18 C-86.48073664 16.92453624 -79.06004475 16.81388274 -71.47436523 16.81469727 C-69.2034212 16.8125153 -66.93296756 16.79432469 -64.66210938 16.77539062 C-56.66477653 16.7446632 -48.76806521 16.838599 -41 19 C-40.67 19.33 -40.34 19.66 -40 20 C-32.6941962 20.80294452 -25.34695063 21.14693901 -18 21 C-18.34224609 20.20335937 -18.34224609 20.20335937 -18.69140625 19.390625 C-18.97886719 18.68421875 -19.26632813 17.9778125 -19.5625 17.25 C-19.85253906 16.55390625 -20.14257812 15.8578125 -20.44140625 15.140625 C-21.1165281 12.55344478 -21.10754553 11.43854323 -20 9 C-17.85546875 7.1484375 -17.85546875 7.1484375 -15.1875 5.375 C-14.31480469 4.78460938 -13.44210938 4.19421875 -12.54296875 3.5859375 C-4.90537849 -1.17729084 -4.90537849 -1.17729084 0 0 Z M-17 22 C-16 24 -16 24 -16 24 Z M-16 24 C-15.39816251 26.02045442 -14.72693904 28.02111039 -14 30 C-13.34 30.33 -12.68 30.66 -12 31 C-12.27034634 28.56282742 -12.27034634 28.56282742 -13 26 C-13.99 25.34 -14.98 24.68 -16 24 Z M-12 31 C-11.34 32.65 -10.68 34.3 -10 36 C-9.67 35.34 -9.34 34.68 -9 34 C-9.99 33.01 -10.98 32.02 -12 31 Z M-9 36 C-8 38 -8 38 -8 38 Z M-8 38 C-7.72965366 40.43717258 -7.72965366 40.43717258 -7 43 C-5.515 43.99 -5.515 43.99 -4 45 C-4.60183749 42.97954558 -5.27306096 40.97888961 -6 39 C-6.66 38.67 -7.32 38.34 -8 38 Z M-4 45 C-3 47 -3 47 -3 47 Z M-3 47 C-2 49 -2 49 -2 49 Z M-2 49 C-1.39816251 51.02045442 -0.72693904 53.02111039 0 55 C0.66 55.33 1.32 55.66 2 56 C1.43628586 52.73045798 0.50037734 51.17424117 -2 49 Z M4 59 C4.64544429 62.48539917 6.10134397 65.02819057 8 68 C8.33 67.34 8.66 66.68 9 66 C8.23498445 64.20459489 8.23498445 64.20459489 7.0625 62.375 C6.0415625 60.704375 6.0415625 60.704375 5 59 C4.67 59 4.34 59 4 59 Z M9 68 C10 70 10 70 10 70 Z " fill="#00D9FF" transform="translate(191,41)"/>
<path d="M0 0 C6.02798199 -1.2055964 10.89823152 2.17688701 16 5 C16 5.66 16 6.32 16 7 C16.804375 7.2475 17.60875 7.495 18.4375 7.75 C21 9 21 9 21.8137207 10.76171875 C22.07081954 13.8509483 21.06199015 15.37783292 19.54296875 18.0625 C19.00736328 19.02414063 18.47175781 19.98578125 17.91992188 20.9765625 C17.34822266 21.97429688 16.77652344 22.97203125 16.1875 24 C15.07654405 25.97901014 13.96585643 27.95817095 12.85546875 29.9375 C12.10753052 31.25041016 12.10753052 31.25041016 11.34448242 32.58984375 C10.16666737 34.70122749 9.06002992 36.82764746 8 39 C7.34 39 6.68 39 6 39 C5.92136719 39.66644531 5.84273437 40.33289063 5.76171875 41.01953125 C4.74669564 44.99113451 2.86591688 48.16307175 0.8125 51.6875 C0.40829834 52.39358398 0.00409668 53.09966797 -0.41235352 53.82714844 C-3.14614075 58.5850576 -5.93854844 63.30726412 -8.80859375 67.984375 C-9.97067608 69.9503897 -11.00497389 71.94515539 -12 74 C-12.66 74 -13.32 74 -14 74 C-14.33 75.32 -14.66 76.64 -15 78 C-22.40925924 77.18926039 -28.4024289 73.75753157 -34 69 C-35.64903333 65.63450074 -35.06442017 63.49535309 -34 60 C-33.16214164 58.28251821 -32.26762032 56.59204157 -31.33203125 54.92578125 C-30.52439331 53.47909058 -30.52439331 53.47909058 -29.70043945 52.00317383 C-29.13929443 51.01212646 -28.57814941 50.0210791 -28 49 C-27.46785889 48.05342529 -26.93571777 47.10685059 -26.38745117 46.1315918 C-24.2194301 42.28425238 -22.03699457 38.44516146 -19.85546875 34.60546875 C-16.63031411 28.91718885 -13.4651436 23.2009066 -10.34375 17.45507812 C-8.69340139 14.43983364 -6.98791665 11.46561923 -5.25 8.5 C-4.67765625 7.5203125 -4.1053125 6.540625 -3.515625 5.53125 C-2.39333267 3.65690611 -1.21182698 1.81774048 0 0 Z " fill="#00DAFF" transform="translate(35,41)"/>
<path d="M0 0 C3.13995591 2.87272562 4.85082442 4.62611137 5.31640625 8.9140625 C4.95429506 12.44576426 4.13058092 13.88635678 2 16.6875 C1.36449219 17.53828125 0.72898437 18.3890625 0.07421875 19.265625 C-0.61027344 20.16796875 -1.29476562 21.0703125 -2 22 C-3.39614287 23.97894833 -4.79197958 25.95811269 -6.1875 27.9375 C-8.50618992 31.21955599 -10.53133663 33.90800458 -14 36 C-18.59806306 36.5108959 -20.86036211 36.60619037 -24.9375 34.4375 C-27.65347555 31.22771072 -27.82877708 29.17520499 -28 25 C-26.59375 22.0078125 -26.59375 22.0078125 -24.5 19.125 C-23.76394531 18.09632813 -23.02789062 17.06765625 -22.26953125 16.0078125 C-16.92839903 8.92920354 -16.92839903 8.92920354 -14.54296875 5.9375 C-13.47709905 4.59909146 -12.46100534 3.22005941 -11.48828125 1.8125 C-8.30718272 -2.06159375 -4.42346688 -1.14400006 0 0 Z " fill="#00DAFF" transform="translate(73,127)"/>
<path d="M0 0 C2.9375 2.0625 2.9375 2.0625 5 5 C5.40542455 7.80678537 5.24224516 10.14150712 5 13 C4.34 13 3.68 13 3 13 C2.74992187 13.70898438 2.49984375 14.41796875 2.2421875 15.1484375 C0.86313061 18.31419704 -0.84011151 20.83758672 -2.875 23.625 C-3.55304688 24.56601563 -4.23109375 25.50703125 -4.9296875 26.4765625 C-6.8581949 28.82715831 -8.36886817 30.4943234 -11 32 C-15.02815306 32.38396606 -18.82609697 31.95379621 -22 29.375 C-23.4816164 25.85616105 -24.12409067 23.90885625 -24 20 C-19.41238557 10.3117791 -11.77102169 -2.79312379 0 0 Z " fill="#00DAFF" transform="translate(86,143)"/>
<path d="M0 0 C3.43391851 1.17734349 5.27236319 2.80387191 7 6 C7.78225085 9.91125427 7.45209166 12.19353441 5.5 15.67578125 C3.76212985 18.23551915 2.05661086 20.68747602 0 23 C-0.66 23 -1.32 23 -2 23 C-2 23.66 -2 24.32 -2 25 C-5.48660044 26.74330022 -9.19592935 26.5706106 -13 26 C-16.0625 23.9375 -16.0625 23.9375 -18 21 C-18.51111381 16.69642176 -18.31646762 14.55000347 -16.13671875 10.76171875 C-15.32847656 9.74722656 -14.52023438 8.73273438 -13.6875 7.6875 C-12.88699219 6.66011719 -12.08648437 5.63273438 -11.26171875 4.57421875 C-7.61915687 0.4283668 -5.41596051 -0.44211923 0 0 Z " fill="#00DBFF" transform="translate(98,158)"/>
<path d="M0 0 C2.50160818 1.87620613 3.61945652 3.23891303 5 6 C5.60437588 11.31850776 4.27043331 13.8456658 1 18 C-0.11375 19.4540625 -0.11375 19.4540625 -1.25 20.9375 C-4.12624747 23.09468561 -4.62232492 23.34721547 -8 23.125 C-12.23545712 22.2586565 -14.49867787 20.59565056 -17 17 C-18.05626739 12.00673599 -16.79238739 9.25387974 -14.125 5.125 C-10.24040583 -0.41101585 -6.58349194 -0.87857989 0 0 Z " fill="#00DAFF" transform="translate(49,125)"/>
</svg>
