<svg xmlns="http://www.w3.org/2000/svg" style="filter: grayscale(100%);" viewBox="0 0 24 24"><defs><linearGradient id="a" x1="-27.9" x2="-23.5" y1="60.4" y2="60.4" gradientTransform="matrix(1.1 0 0 -1.1 46.4 80.8)" gradientUnits="userSpaceOnUse"><stop offset="0" stop-color="#007f49"/><stop offset=".3" stop-color="#1f9248"/><stop offset=".8" stop-color="#4fae46"/><stop offset="1" stop-color="#62ba46"/></linearGradient><linearGradient id="b" x1="-27.9" x2="-23.5" y1="61.1" y2="61.1" gradientTransform="matrix(1.1 0 0 -1.1 46.4 80.8)" gradientUnits="userSpaceOnUse"><stop offset="0" stop-color="#007f49"/><stop offset=".3" stop-color="#1f9248"/><stop offset=".8" stop-color="#4fae46"/><stop offset="1" stop-color="#62ba46"/></linearGradient><linearGradient id="c" x1="-27.9" x2="-23.5" y1="61.9" y2="61.9" gradientTransform="matrix(1.1 0 0 -1.1 46.4 80.8)" gradientUnits="userSpaceOnUse"><stop offset="0" stop-color="#007f49"/><stop offset=".3" stop-color="#1f9248"/><stop offset=".8" stop-color="#4fae46"/><stop offset="1" stop-color="#62ba46"/></linearGradient><linearGradient id="d" x1="-37.6" x2="-33.2" y1="61.1" y2="61.1" gradientTransform="matrix(1.1 0 0 -1.1 46.4 80.8)" gradientUnits="userSpaceOnUse"><stop offset="0" stop-color="#337"/><stop offset="0" stop-color="#2e387c"/><stop offset=".7" stop-color="#0d65ac"/><stop offset="1" stop-color="#0077bf"/></linearGradient><linearGradient id="e" x1="-32.8" x2="-28.5" y1="61.1" y2="61.1" gradientTransform="matrix(1.1 0 0 -1.1 46.4 80.8)" gradientUnits="userSpaceOnUse"><stop offset="0" stop-color="#743237"/><stop offset=".4" stop-color="#a9263d"/><stop offset=".8" stop-color="#d91b43"/><stop offset="1" stop-color="#ec1846"/></linearGradient></defs><path d="M22 13V7c0-1.7-1.3-3-3-3H5C3.3 4 2 5.3 2 7v10c0 1.7 1.3 3 3 3h14c1.7 0 3-1.3 3-3v-4Z" style="fill-rule:evenodd;fill:#f1f1f1"/><path d="M20.9 16.1c0 1.5-1.2 2.8-2.8 2.8h-15v-11c0-1.5 1.2-2.8 2.8-2.8H21v11Z" style="fill:#f1f1f1"/><path d="M16 13.3h1.2c.2 0 .4-.2.4-.5s-.2-.5-.4-.5H16v1Z" style="fill:url(#a)"/><path d="M17 6.1c-1.1 0-2 .9-2 2v2.1h3c.6 0 1.1.4 1.1.9s-.3.8-.9.9c.6 0 1.1.4 1.1 1s-.5 1-1.3 1h-3.1v4h2.9c1.1 0 2-.9 2-2V6.1h-2.9Z" style="fill:url(#b)"/><path d="M17.6 11.2c0-.3-.2-.4-.4-.5h-1.1v1h1.1c.2 0 .4-.2.4-.5Z" style="fill:url(#c)"/><path d="M6.1 6.1c-1.1 0-2 .9-2 2V13c.6.3 1.1.4 1.7.4s1.1-.4 1.1-1v-2.3h1.7v2.3c0 .9-.6 1.6-2.4 1.6s-2-.2-2-.2V18h2.9c1.1 0 2-.9 2-2V6.1H6.2Z" style="fill:url(#d)"/><path d="M11.5 6.1c-1.1 0-2 .9-2 2v2.6c.5-.4 1.4-.7 2.8-.6.8 0 1.6.2 1.6.2v.8c-.4-.2-.9-.4-1.5-.4-1.1 0-1.7.4-1.7 1.4s.6 1.4 1.7 1.4c.6 0 1.1-.2 1.5-.4v.8s-.8.2-1.6.2c-1.4 0-2.3-.2-2.8-.6v4.6h2.9c1.1 0 2-.9 2-2v-10h-2.9Z" style="fill:url(#e)"/></svg>