<?xml version="1.0" encoding="utf-8"?><svg xmlns="http://www.w3.org/2000/svg" viewBox="0 0 24 24"><path fill="#4A4A4A" d="M22 13V7c0-1.654-1.346-3-3-3H5C3.346 4 2 5.346 2 7v10c0 1.654 1.346 3 3 3h14c1.654 0 3-1.346 3-3v-4Z"/><path fill="#D2D3D5" d="M14.163 8.069H9.837v7.862h4.326V8.069Z"/><path fill="#A5A8AB" d="M10.111 12c0-1.595.739-3.015 1.889-3.931A4.889 4.889 0 0 0 8.944 7C6.214 7 4 9.239 4 12s2.214 5 4.944 5c1.154 0 2.215-.4 3.056-1.069A5.012 5.012 0 0 1 10.111 12Z"/><path fill="#fff" d="M20 12c0 2.761-2.214 5-4.944 5-1.154 0-2.215-.4-3.056-1.069A5.011 5.011 0 0 0 13.889 12 5.012 5.012 0 0 0 12 8.069 4.889 4.889 0 0 1 15.056 7C17.786 7 20 9.239 20 12Z"/></svg>