<svg width="138" height="41" viewBox="0 0 138 41" fill="none" xmlns="http://www.w3.org/2000/svg">
<rect width="137.5" height="40" transform="translate(0.5 0.1875)" fill="#F7F7F7"/>
<path d="M50.6892 17.812C53.2138 17.812 55.2368 19.7875 55.2368 22.3019C55.2368 24.7998 53.2138 26.7425 50.6892 26.7425C48.1797 26.7425 46.1566 24.7998 46.1566 22.3019C46.1566 19.7875 48.1797 17.812 50.6892 17.812ZM50.6892 24.3916C51.8695 24.3916 52.7443 23.4446 52.7443 22.2855C52.7443 21.1262 51.8695 20.163 50.6892 20.163C49.5391 20.163 48.6491 21.1262 48.6491 22.2855C48.6491 23.461 49.5391 24.3916 50.6892 24.3916ZM67.1641 20.4078C67.1641 24.016 64.5905 26.4977 60.9007 26.4977H56.2889C56.0627 26.4977 55.9156 26.318 55.9156 26.1059V14.7426C55.9156 14.5303 56.0777 14.3671 56.2889 14.3671H60.9007C64.5905 14.3671 67.1641 16.7834 67.1641 20.4078ZM64.4623 20.4078C64.4623 18.2854 63.0539 16.7508 61.0138 16.7508H58.4892V24.0978H61.0138C63.0539 24.1139 64.4623 22.4978 64.4623 20.4078ZM71.857 17.812C72.9751 17.812 73.865 18.3018 74.2685 18.9548V18.4323C74.2685 18.2201 74.4627 18.0569 74.6248 18.0569H76.3575C76.5668 18.0569 76.712 18.2365 76.712 18.4323V26.1384C76.712 26.3507 76.5518 26.4977 76.3575 26.4977H74.6248C74.4306 26.4977 74.2685 26.3344 74.2685 26.1384V25.5998C73.8801 26.2528 72.9581 26.7425 71.8419 26.7425C69.6737 26.7425 67.6657 24.9957 67.6657 22.2691C67.6657 19.5262 69.6887 17.812 71.857 17.812ZM72.3265 24.4078C73.4766 24.4078 74.3345 23.5098 74.3345 22.2855C74.3345 21.0446 73.4766 20.163 72.3265 20.163C71.1782 20.163 70.3204 21.061 70.3204 22.2855C70.3034 23.5262 71.1782 24.4078 72.3265 24.4078ZM81.5519 17.812C82.6851 17.812 83.592 18.3018 83.9955 18.9221V14.7263C83.9955 14.514 84.1746 14.3671 84.3688 14.3671H86.0996C86.3108 14.3671 86.4559 14.5303 86.4559 14.7263V26.1384C86.4559 26.3507 86.2938 26.4977 86.0996 26.4977H84.3688C84.1746 26.4977 84.0124 26.3344 84.0124 26.1384V25.5998C83.5429 26.2528 82.7001 26.7425 81.584 26.7425C79.4157 26.7425 77.4096 24.9957 77.4096 22.2691C77.4096 19.5262 79.3987 17.812 81.5519 17.812ZM82.0704 24.4405C83.2187 24.4405 84.0765 23.5425 84.0765 22.2855C84.0765 21.0282 83.2187 20.1303 82.0704 20.1303C80.9203 20.1303 80.0624 21.0282 80.0624 22.2855C80.0624 23.5425 80.9203 24.4405 82.0704 24.4405ZM91.294 17.812C92.4271 17.812 93.334 18.3018 93.7375 18.9221V14.7263C93.7375 14.514 93.9166 14.3671 94.1108 14.3671H95.8417C96.0528 14.3671 96.198 14.5303 96.198 14.7263V26.1384C96.198 26.3507 96.0359 26.4977 95.8417 26.4977H94.1108C93.9166 26.4977 93.7545 26.3344 93.7545 26.1384V25.5998C93.285 26.2528 92.4441 26.7425 91.3279 26.7425C89.1578 26.7425 87.1517 24.9957 87.1517 22.2691C87.1517 19.5262 89.1427 17.812 91.294 17.812ZM91.8125 24.4405C92.9607 24.4405 93.8186 23.5425 93.8186 22.2855C93.8186 21.0282 92.9607 20.1303 91.8125 20.1303C90.6642 20.1303 89.8064 21.0282 89.8064 22.2855C89.8064 23.5425 90.6642 24.4405 91.8125 24.4405ZM105.035 18.0569H103.302C103.029 18.0569 102.899 18.2528 102.835 18.4487L101.232 24.4732L99.5164 18.4487C99.4183 18.1222 99.2581 18.0569 99.0299 18.0569H97.2011C96.7655 18.0569 96.6995 18.3508 96.7806 18.6446L99.0959 26.1384C99.16 26.3507 99.3052 26.4977 99.5654 26.4977H100.617L100.389 27.2487C100.163 27.8855 99.7596 28.065 99.2241 28.065C98.7716 28.065 98.4643 27.8855 98.14 27.6732C98.0118 27.5916 97.9138 27.5589 97.8006 27.5589C97.6385 27.5589 97.5423 27.6241 97.3953 27.8528L96.8786 28.6364C96.7806 28.7998 96.7165 28.8814 96.7165 29.0609C96.7165 29.3384 96.9918 29.5018 97.3142 29.6977C97.8817 30.0241 98.5944 30.1875 99.3863 30.1875C101.119 30.1875 102.235 29.2405 102.737 27.6405L105.325 18.6773C105.472 18.3018 105.374 18.0569 105.035 18.0569ZM43.2775 24.8487C42.3706 26.0078 40.785 26.7425 38.9881 26.7425C35.6207 26.7425 33 24.1957 33 20.5548C33 16.7834 35.8319 14.1875 39.4086 14.1875C42.0463 14.1875 44.1674 15.3303 45.1045 17.6487C45.1384 17.7303 45.1535 17.7793 45.1535 17.8446C45.1535 17.9589 45.0894 18.0405 44.8632 18.1222L43.1964 18.7753C43.0663 18.8242 42.9532 18.8242 42.8721 18.7753C42.7911 18.7426 42.727 18.661 42.6779 18.5467C42.0784 17.3875 41.0112 16.6038 39.3596 16.6038C37.2234 16.6038 35.7018 18.2854 35.7018 20.4569C35.7018 22.563 36.9971 24.3098 39.4256 24.3098C40.7039 24.3098 41.707 23.7057 42.1915 23.0364H40.6869C40.4607 23.0364 40.2985 22.8569 40.2985 22.6446V21.3385C40.2985 21.1098 40.4776 20.9467 40.6869 20.9467H45.1215C45.3477 20.9467 45.5099 21.0937 45.5099 21.3221V26.1059C45.5099 26.3344 45.3327 26.4977 45.1215 26.4977H43.681C43.4547 26.4977 43.2926 26.318 43.2926 26.1059V24.8487H43.2775Z" fill="#111111"/>
</svg>
