<svg width="109" height="22" viewBox="0 0 109 22" fill="none" xmlns="http://www.w3.org/2000/svg">
<g clip-path="url(#clip0_3306_18268)">
<path d="M10.7959 21.5H10.6197C10.5317 21.4119 0.59541 18.7693 0.859671 4.00587V3.79446L2.21621 1.85655L2.48048 1.82131C2.65665 1.78607 10.7959 0.5 10.7959 0.5C10.7959 0.5 18.9704 1.76846 19.1466 1.82131L19.358 1.85655L20.7145 3.79446V4.00587C20.8907 11.6518 18.2481 16.0034 16.0107 18.2936C13.5795 20.7953 11.0249 21.5 10.7959 21.5ZM2.23383 4.27013C2.05766 16.849 9.58031 19.703 10.8135 20.0906C12.082 19.703 19.5518 16.8314 19.3932 4.21728L18.5652 3.03691C17.6491 2.8255 14.0375 1.94463 10.8311 1.85655C7.62477 1.94463 4.06605 2.8255 3.09709 3.03691L2.23383 4.27013Z" fill="#01426A"/>
<path d="M7.41357 9.67806H14.7953V11.1227H7.41357V9.67806ZM7.41357 13.3249H14.7953V14.7695H7.41357V13.3249ZM7.41357 6.03125H14.7953V7.47588H7.41357V6.03125Z" fill="#01426A"/>
<path d="M7.37836 11.7056C6.67366 11.7056 6.05705 11.089 6.05705 10.349C6.05705 9.64432 6.62081 8.99248 7.37836 8.99248H10.849V7.98828H7.3255C6.00419 7.98828 5 9.04533 5 10.3666C5 11.6879 6.05705 12.745 7.3255 12.745H10.849V11.7056H7.37836Z" fill="#42C31D"/>
<path d="M26.458 14.8248V6.08657H32.1661V7.30217H27.8498V9.82146H31.5847V11.0371H27.8498V13.5564H32.1661V14.8248H26.458ZM36.6057 15.0538C35.7776 15.0538 34.932 14.8424 34.104 14.4372L33.9807 14.402L34.5973 13.0807L34.7206 13.1159C35.3724 13.4154 36.0419 13.5916 36.6057 13.5916C38.1031 13.5916 38.1912 12.7636 38.1912 12.5346C38.1912 12.147 38.156 11.6184 37.5746 11.3894C37.4513 11.3542 37.1342 11.2132 36.7818 11.1252C35.8129 10.949 34.0159 10.5614 34.0159 8.30637C34.0159 7.56643 34.2802 6.94982 34.7558 6.50939C35.2844 6.06895 35.989 5.85754 36.9932 5.85754C37.557 5.85754 38.1736 5.94563 38.6669 5.98086C38.8783 6.0161 39.4597 6.06895 39.4597 6.06895L39.3716 7.51358C39.3716 7.51358 38.8078 7.42549 38.5436 7.39026C38.1031 7.35502 37.5394 7.30217 37.0109 7.26693C35.6543 7.2317 35.5134 7.91878 35.4781 8.27113C35.4429 8.57063 35.4781 9.27533 37.0637 9.62768C37.5922 9.751 38.0679 9.89194 38.5083 10.1562C39.6006 10.7728 39.7768 11.8651 39.5654 13.0631C39.4773 13.6268 39.125 14.1554 38.5083 14.5077C38.0503 14.8777 37.3456 15.0538 36.6057 15.0538ZM44.1988 15.001C43.4588 15.001 42.6661 14.9129 41.9966 14.2963C41.2919 13.5916 40.9924 12.4465 41.0276 10.3852C40.9924 8.35922 41.2919 7.17885 41.9966 6.50939C42.6132 5.89277 43.4412 5.80469 44.1988 5.80469C44.5511 5.80469 44.9035 5.80469 45.2911 5.83992C45.7667 5.87516 46.7005 6.05133 46.7357 6.05133L46.859 6.08657V7.58405C46.859 7.58405 46.7357 7.58405 46.5595 7.54881C46.26 7.51358 45.5553 7.37264 45.203 7.37264C44.8154 7.3374 44.463 7.33741 44.1988 7.33741C43.635 7.33741 43.2827 7.42549 43.0536 7.60167C42.7013 7.95402 42.5251 8.87013 42.5251 10.4205V10.4557C42.4899 11.9532 42.6484 12.9221 43.0536 13.2745C43.2651 13.4507 43.5822 13.5387 44.1988 13.5387C44.4983 13.5387 44.8506 13.5387 45.203 13.5035C45.6434 13.4683 46.7005 13.2921 46.7005 13.2921L46.8766 13.2569V14.7543L46.7533 14.7896C46.7181 14.7896 45.7491 14.9658 45.3087 15.001C44.9035 14.9658 44.5511 15.001 44.1988 15.001ZM53.6065 14.8248L51.4043 11.9179H50.1359V14.8248H48.5503V6.08657H52.25C53.3422 6.08657 54.7164 7.05553 54.7164 8.90536C54.7164 10.9666 53.1837 11.5832 53.0956 11.6361L55.4211 14.8953H53.6241V14.8248H53.6065ZM52.1266 10.3852C52.6023 10.3852 53.1837 9.8567 53.1837 8.97583C53.1837 8.14781 52.708 7.65452 52.0914 7.65452H50.1535V10.3852H52.1266ZM59.8078 15.001C57.7818 15.001 56.4253 13.8559 56.4253 12.1822V8.53539C56.4253 6.91459 57.7466 5.89277 59.8078 5.89277C61.8338 5.89277 63.1904 7.03791 63.1904 8.71157V12.2351C63.1904 13.8559 61.781 15.001 59.8078 15.001ZM59.8078 7.26693C58.8917 7.26693 57.9228 7.61928 57.9228 8.67633V12.0236C57.9228 12.9398 58.7156 13.6092 59.8078 13.6092C60.9001 13.6092 61.6929 12.9574 61.6929 12.0236V8.8525C61.6577 7.91878 60.8649 7.26693 59.8078 7.26693ZM71.5058 14.7896L69.8322 8.14781L68.1585 14.7896H66.3615L64.1241 5.82231H65.7802L67.3657 12.147L68.9513 5.82231H70.7483L72.3338 12.147L73.9194 5.82231H75.5931L73.3557 14.7896H71.5058Z" fill="#01426A"/>
<path d="M76.7737 15.0006C77.3283 15.0006 77.7779 14.551 77.7779 13.9964C77.7779 13.4418 77.3283 12.9922 76.7737 12.9922C76.2191 12.9922 75.7695 13.4418 75.7695 13.9964C75.7695 14.551 76.2191 15.0006 76.7737 15.0006Z" fill="#42C31D"/>
<path d="M82.4112 15.001C81.6713 15.001 80.8785 14.9129 80.209 14.2963C79.5043 13.5916 79.2048 12.4465 79.2401 10.3852C79.2048 8.35922 79.5043 7.17885 80.209 6.50939C80.8256 5.89277 81.6537 5.80469 82.4112 5.80469C82.7636 5.80469 83.1511 5.80469 83.5564 5.83992C84.032 5.87516 84.9129 6.05133 84.9657 6.05133L85.0891 6.08657V7.58405H84.9657C84.6663 7.54882 83.7325 7.37264 83.433 7.37264C83.0454 7.3374 82.6931 7.33741 82.4288 7.33741C81.8651 7.33741 81.5127 7.42549 81.2837 7.60167C80.9314 7.95402 80.7552 8.87013 80.7552 10.4205V10.4557C80.7199 11.9532 80.8785 12.9221 81.2837 13.2745C81.4951 13.4507 81.8122 13.5387 82.4288 13.5387C82.7283 13.5387 83.0807 13.5387 83.433 13.5035C83.8735 13.4683 84.9305 13.2921 84.9305 13.2921L85.1067 13.2569V14.7543L84.9834 14.7896C84.9481 14.7896 83.9792 14.9658 83.5387 15.001H82.4112ZM90.0572 15.001C88.1193 15.001 86.7627 13.8559 86.7627 12.1822V8.48254C86.7627 6.86174 88.084 5.83992 90.0572 5.83992C91.9951 5.83992 93.3517 6.98506 93.3517 8.65872V12.1822C93.3517 13.8559 91.9775 15.001 90.0572 15.001ZM90.0572 7.26693C89.1763 7.26693 88.2074 7.61928 88.2074 8.67633V12.0236C88.2074 12.9398 88.9473 13.6092 90.0572 13.6092C91.1142 13.6092 91.907 12.9574 91.907 12.0236V8.8525C91.8542 7.91878 91.1142 7.26693 90.0572 7.26693ZM101.967 15.001L101.738 9.59244L100.064 13.8206H98.4079L96.6813 9.59244L96.5052 15.001H94.9372L95.2367 5.85754H96.7694L99.2359 11.9708L101.702 5.85754H103.2L103.552 15.001H101.967Z" fill="#42C31D"/>
<path d="M106.671 13.729H106.23V14.9975H105.966V13.729H105.525V13.5176H106.706V13.729H106.671ZM108.644 13.5V14.9975H108.379V14.0285V13.9052L107.939 14.7861C107.939 14.8213 107.904 14.8213 107.851 14.8213H107.816C107.78 14.8213 107.728 14.8213 107.728 14.7861L107.252 13.9052V14.9975H106.988V13.5H107.27V13.5352L107.71 14.3633C107.71 14.3985 107.745 14.3985 107.745 14.4513C107.745 14.4866 107.745 14.4866 107.78 14.5394C107.78 14.5042 107.78 14.5042 107.816 14.4513C107.816 14.4161 107.816 14.4161 107.851 14.3633L108.291 13.5352V13.5H108.362H108.644Z" fill="#01426A"/>
</g>
<defs>
<clipPath id="clip0_3306_18268">
<rect width="107.827" height="21" fill="white" transform="matrix(-1 0 0 -1 108.664 21.5)"/>
</clipPath>
</defs>
</svg>
