<svg width="86" height="16" viewBox="0 0 86 16" fill="none" xmlns="http://www.w3.org/2000/svg">
<g clip-path="url(#clip0_3306_11581)">
<path d="M65.7967 12.9639C65.5967 12.9639 65.4293 12.8967 65.2939 12.7624C65.1585 12.628 65.0908 12.4616 65.0908 12.2632C65.0908 12.0648 65.1585 11.8984 65.2939 11.7641C65.4293 11.6297 65.5967 11.5625 65.7967 11.5625C65.9899 11.5625 66.1542 11.6297 66.2896 11.7641C66.425 11.8984 66.4927 12.0648 66.4927 12.2632C66.4927 12.4616 66.425 12.628 66.2896 12.7624C66.1542 12.8967 65.9899 12.9639 65.7967 12.9639Z" fill="#19184A"/>
<path d="M74.3288 11.4313C74.0285 11.1296 73.8759 10.7483 73.8759 10.2946C73.8759 9.84095 74.0285 9.4596 74.3288 9.15751C74.6291 8.8556 75.0014 8.70249 75.4383 8.70249C75.8753 8.70249 76.2574 8.85585 76.5571 9.15751C76.8568 9.4596 77.0094 9.84095 77.0094 10.2946C77.0094 10.7483 76.8568 11.1296 76.5571 11.4313C76.2574 11.7334 75.882 11.8868 75.4383 11.8868C74.9946 11.8868 74.6291 11.7337 74.3288 11.4313ZM75.4377 7.66797C74.7146 7.66797 74.0919 7.92372 73.5879 8.42717C73.0845 8.93037 72.8291 9.55935 72.8291 10.2942C72.8291 11.029 73.0845 11.658 73.5879 12.1612C74.0919 12.6647 74.7146 12.92 75.4377 12.92C76.1608 12.92 76.786 12.6647 77.2919 12.1613C77.7989 11.6573 78.0568 11.0283 78.0568 10.2942C78.0568 9.56015 77.7996 8.93068 77.2919 8.42705C76.7854 7.92372 76.1608 7.66797 75.4377 7.66797Z" fill="#19184A" stroke="#19184A" stroke-width="0.071166"/>
<path d="M83.7748 7.66797C83.1379 7.66797 82.6369 7.90901 82.2886 8.38569C81.9736 7.90914 81.501 7.66797 80.8862 7.66797C80.3496 7.66797 79.9108 7.85185 79.581 8.21578V7.83652V7.79271H79.5373H78.5779H78.5342V7.83652V12.7523V12.7961H78.5779H79.5373H79.581V12.7523V10.0263C79.581 9.56735 79.6899 9.22883 79.8973 9.01252C80.1059 8.79394 80.3705 8.68274 80.6874 8.68274C80.9668 8.68274 81.184 8.77425 81.341 8.95166C81.5003 9.13191 81.5846 9.39511 81.5846 9.73954V12.7523V12.7961H81.6283H82.5877H82.6314V12.7523V10.0263C82.6314 9.5588 82.7323 9.21825 82.9225 9.00477C83.1139 8.78895 83.3637 8.68274 83.6905 8.68274C83.9803 8.68274 84.2006 8.77228 84.3699 8.95381C84.5373 9.1332 84.6253 9.3956 84.6253 9.73954V12.7523V12.7961H84.669H85.6283H85.6726V12.7523V9.71111C85.6726 9.09449 85.4973 8.59295 85.1483 8.22403L85.1348 8.21037C84.7859 7.84988 84.3274 7.66797 83.7748 7.66797Z" fill="#19184A" stroke="#19184A" stroke-width="0.071166"/>
<path d="M67.734 8.82976C67.5186 9.22557 67.4121 9.68532 67.4121 10.2073C67.4121 10.7292 67.5186 11.1917 67.7333 11.5934L67.734 11.5941C67.9549 11.9893 68.2583 12.2986 68.6435 12.521L68.6441 12.5213C69.0293 12.7378 69.4712 12.8455 69.9678 12.8455C70.5832 12.8455 71.1007 12.6949 71.5192 12.3911L71.5198 12.3909C71.937 12.0814 72.2213 11.6666 72.3727 11.1481L72.3893 11.092H72.3309H71.1863H71.1561L71.1456 11.1204C71.049 11.3771 70.9032 11.567 70.7093 11.6931C70.5149 11.8194 70.2687 11.884 69.9678 11.884C69.545 11.884 69.2109 11.737 68.9592 11.4443C68.7136 11.1512 68.5881 10.7408 68.5881 10.2073C68.5881 9.67369 68.7136 9.26643 68.9592 8.97954C69.2103 8.68668 69.545 8.53966 69.9678 8.53966C70.2712 8.53966 70.5192 8.60791 70.7155 8.74145C70.9118 8.87554 71.0552 9.06219 71.1456 9.30317L71.1561 9.33166H71.1863H72.3309H72.3875L72.3727 9.27652C72.2281 8.73376 71.9469 8.31499 71.5278 8.02317C71.1161 7.72545 70.5949 7.57812 69.9678 7.57812C69.4712 7.57812 69.0293 7.68582 68.6441 7.90237C68.2583 8.11893 67.9549 8.4284 67.734 8.82976Z" fill="#19184A" stroke="#19184A" stroke-width="0.071166"/>
<path d="M29.6528 4.44542C28.8128 3.37508 27.6435 2.83203 26.1703 2.83203C24.7995 2.83203 23.6144 3.3383 22.6483 4.33681C21.6839 5.33444 21.1943 6.56592 21.1943 7.99891C21.1943 9.43183 21.6839 10.6633 22.6483 11.6601C23.6144 12.6586 24.7995 13.1649 26.1703 13.1649C27.6435 13.1649 28.8137 12.6227 29.6528 11.5515V12.9161H31.585V3.08078H29.6528V4.44454V4.44542ZM28.7156 5.65327C29.3375 6.28038 29.6528 7.07048 29.6528 7.99977C29.6528 8.92912 29.3375 9.71915 28.7156 10.3454C28.0929 10.9734 27.3072 11.2923 26.3796 11.2923C25.4521 11.2923 24.6865 10.9734 24.0638 10.3454C23.4419 9.71829 23.1257 8.92912 23.1257 7.99977C23.1257 7.07048 23.441 6.28131 24.0638 5.65327C24.6857 5.02526 25.4643 4.70731 26.3796 4.70731C27.2949 4.70731 28.0937 5.02526 28.7156 5.65327Z" fill="#19184A"/>
<path d="M43.6015 2.83203C42.1686 2.83203 40.9362 3.33479 39.9386 4.32542C38.941 5.31518 38.4355 6.55103 38.4355 7.99891C38.4355 9.44672 38.9418 10.6826 39.9386 11.6724C40.9362 12.663 42.1686 13.1649 43.6015 13.1649C45.0345 13.1649 46.2712 12.663 47.2733 11.6724C48.2779 10.6809 48.7885 9.445 48.7885 7.99891C48.7885 6.55281 48.2788 5.31605 47.2733 4.32542C46.2704 3.33479 45.0345 2.83203 43.6015 2.83203ZM46.8546 7.99977C46.8546 8.92912 46.5393 9.71478 45.9174 10.3358C45.2964 10.9577 44.5177 11.273 43.6015 11.273C42.6854 11.273 41.9259 10.9577 41.3041 10.3358C40.6822 9.71478 40.3669 8.92912 40.3669 7.99977C40.3669 7.07048 40.6822 6.28475 41.3041 5.6629C41.9259 5.0419 42.6985 4.72657 43.6015 4.72657C44.5046 4.72657 45.2973 5.0419 45.9174 5.6629C46.5393 6.28475 46.8546 7.07048 46.8546 7.99977Z" fill="#19184A"/>
<path d="M63.0952 3.91726C62.4085 3.19727 61.5 2.83203 60.3946 2.83203C59.0904 2.83203 58.0831 3.3383 57.3965 4.33768C56.7807 3.3383 55.833 2.83203 54.5761 2.83203C53.4322 2.83203 52.5204 3.25158 51.8591 4.07929V3.08166H49.9277V12.917H51.8591V7.46284C51.8591 6.53269 52.0816 5.82932 52.5213 5.37386C52.9583 4.91839 53.5145 4.68716 54.1758 4.68716C54.7591 4.68716 55.2234 4.87811 55.5588 5.25474C55.8987 5.63663 56.0712 6.18666 56.0712 6.88912V12.917H58.0034V7.46284C58.0034 6.5178 58.2076 5.81093 58.6113 5.36072C59.016 4.90788 59.5441 4.68716 60.2247 4.68716C60.8291 4.68716 61.2968 4.87373 61.6568 5.25737C62.014 5.6375 62.1956 6.18666 62.1956 6.88912V12.917H64.1279V6.8322C64.1279 5.6156 63.7802 4.63548 63.0952 3.91726Z" fill="#19184A"/>
<path d="M37.5191 11.1233C37.0505 11.2547 36.5653 11.33 36.1878 11.33C35.0789 11.33 34.6471 10.8211 34.6471 9.51515V4.85804H37.8423V3.10013H34.6471V0.785156H32.7236V9.51515C32.7236 11.9002 33.8518 13.1606 35.9863 13.1606C36.6073 13.1606 37.1276 13.0782 37.9071 12.8549L38.2049 12.7699L37.8774 11.0225L37.52 11.1233H37.5191Z" fill="#19184A"/>
<path d="M9.85182 4.5047L12.3507 0.641151C11.833 0.370499 11.283 0.15766 10.7084 0C10.5727 1.02391 9.79139 1.88404 8.75785 1.99527C7.50966 2.12929 6.42708 1.21661 6.31321 0.00262756C5.74213 0.159412 5.19471 0.372251 4.67969 0.641151L7.17859 4.5047C7.80573 5.47431 9.22468 5.47431 9.85182 4.5047Z" fill="#637CF7"/>
<path d="M6.15596 5.09303L4.06083 1C3.56245 1.31795 3.09735 1.68232 2.67955 2.09574C3.50113 2.72463 3.85762 3.83438 3.43632 4.78559C2.9283 5.93301 1.59783 6.41302 0.489828 5.90585C0.344431 6.46379 0.256846 7.04366 0.231445 7.64102L4.82023 7.40889C5.97377 7.35019 6.68235 6.1222 6.15684 5.09391L6.15596 5.09303Z" fill="#637CF7"/>
<path d="M4.81925 8.5915L0.230469 8.35938C0.25587 8.95938 0.344332 9.54098 0.490605 10.1015C1.44445 9.70738 2.58048 9.95439 3.19272 10.7935C3.93372 11.8095 3.68235 13.2039 2.68471 13.909C3.10163 14.3207 3.56497 14.6833 4.06073 15.0004L6.15586 10.9074C6.68229 9.87907 5.9728 8.65107 4.81925 8.59236V8.5915Z" fill="#637CF7"/>
<path d="M8.27256 14.0023C9.52074 13.8683 10.6033 14.7809 10.7172 15.9949C11.2882 15.8381 11.8357 15.6253 12.3507 15.3564L9.85182 11.4929C9.22468 10.5232 7.80573 10.5232 7.17859 11.4929L4.67969 15.3564C5.19734 15.627 5.7474 15.8399 6.32198 15.9975C6.45772 14.9736 7.23902 14.1135 8.27256 14.0023Z" fill="#637CF7"/>
<path d="M10.8745 10.9073L12.9696 15.0004C13.468 14.6824 13.9331 14.318 14.3509 13.9046C13.5293 13.2757 13.1728 12.166 13.5941 11.2148C14.1022 10.0674 15.4326 9.58738 16.5406 10.0945C16.686 9.53654 16.7736 8.95673 16.799 8.35938L12.2102 8.5915C11.0567 8.65014 10.3481 9.87814 10.8736 10.9065L10.8745 10.9073Z" fill="#637CF7"/>
<path d="M12.2111 7.40887L16.7999 7.64099C16.7744 7.04099 16.686 6.45939 16.5397 5.89884C15.5859 6.29299 14.4498 6.04599 13.8376 5.20689C13.0966 4.19086 13.348 2.79645 14.3456 2.09135C13.9287 1.67969 13.4663 1.31707 12.9696 1L10.8745 5.09303C10.348 6.12132 11.0575 7.3493 12.2111 7.40801V7.40887Z" fill="#637CF7"/>
</g>
<defs>
<clipPath id="clip0_3306_11581">
<rect width="85.5385" height="16" fill="white" transform="translate(0.230469)"/>
</clipPath>
</defs>
</svg>
