<svg width="416" height="44" viewBox="0 0 416 44" fill="none" xmlns="http://www.w3.org/2000/svg">
<rect x="0.5" y="0.5" width="63.3333" height="43" rx="5.5" fill="white"/>
<rect x="0.5" y="0.5" width="63.3333" height="43" rx="5.5" stroke="#D0D2D8"/>
<g opacity="0.3">
<path fill-rule="evenodd" clip-rule="evenodd" d="M31.7579 30.855C29.569 32.6847 26.7296 33.7893 23.627 33.7893C16.704 33.7893 11.0918 28.2899 11.0918 21.506C11.0918 14.7221 16.704 9.22266 23.627 9.22266C26.7296 9.22266 29.569 10.3272 31.7579 12.157C33.9468 10.3272 36.7862 9.22266 39.8888 9.22266C46.8118 9.22266 52.424 14.7221 52.424 21.506C52.424 28.2899 46.8118 33.7893 39.8888 33.7893C36.7862 33.7893 33.9468 32.6847 31.7579 30.855Z" fill="black"/>
<path fill-rule="evenodd" clip-rule="evenodd" d="M31.7578 30.855C34.453 28.602 36.1621 25.2496 36.1621 21.506C36.1621 17.7624 34.453 14.41 31.7578 12.157C33.9467 10.3272 36.7861 9.22266 39.8887 9.22266C46.8117 9.22266 52.4239 14.7221 52.4239 21.506C52.4239 28.2899 46.8117 33.7893 39.8887 33.7893C36.7861 33.7893 33.9467 32.6847 31.7578 30.855Z" fill="white" fill-opacity="0.5"/>
<path fill-rule="evenodd" clip-rule="evenodd" d="M31.7577 30.8542C34.4529 28.6012 36.1619 25.2488 36.1619 21.5052C36.1619 17.7617 34.4529 14.4092 31.7577 12.1562C29.0625 14.4092 27.3535 17.7617 27.3535 21.5052C27.3535 25.2488 29.0625 28.6012 31.7577 30.8542Z" fill="white" fill-opacity="0.2"/>
</g>
<rect x="70.834" y="0.5" width="63.3333" height="43" rx="5.5" fill="white"/>
<rect x="70.834" y="0.5" width="63.3333" height="43" rx="5.5" stroke="#D0D2D8"/>
<path opacity="0.3" fill-rule="evenodd" clip-rule="evenodd" d="M90.207 29.075H86.3993L83.5439 17.9543C83.4084 17.4427 83.1206 16.9905 82.6973 16.7773C81.641 16.2417 80.4769 15.8154 79.207 15.6004V15.1722H85.341C86.1876 15.1722 86.8225 15.8154 86.9284 16.5623L88.4099 24.5841L92.2158 15.1722H95.9177L90.207 29.075ZM98.0342 29.075H94.4381L97.3993 15.1722H100.995L98.0342 29.075ZM105.648 19.0237C105.754 18.2749 106.389 17.8468 107.129 17.8468C108.293 17.7393 109.561 17.9543 110.62 18.4881L111.255 15.4947C110.196 15.0666 109.032 14.8516 107.976 14.8516C104.486 14.8516 101.946 16.7773 101.946 19.45C101.946 21.4832 103.745 22.5508 105.015 23.194C106.389 23.8353 106.918 24.2634 106.812 24.9047C106.812 25.8667 105.754 26.2948 104.697 26.2948C103.427 26.2948 102.158 25.9742 100.995 25.4385L100.36 28.4337C101.63 28.9675 103.004 29.1825 104.274 29.1825C108.188 29.2882 110.62 27.3643 110.62 24.4766C110.62 20.8401 105.648 20.6269 105.648 19.0237ZM123.205 29.075L120.35 15.1722H117.283C116.648 15.1722 116.013 15.6004 115.801 16.2417L110.514 29.075H114.216L114.955 27.0436H119.503L119.926 29.075H123.205ZM117.812 18.9162L118.868 24.156H115.907L117.812 18.9162Z" fill="black"/>
<path d="M141.166 6C141.166 2.96243 143.628 0.5 146.666 0.5H198.999C202.037 0.5 204.499 2.96243 204.499 6V38C204.499 41.0376 202.037 43.5 198.999 43.5H146.666C143.628 43.5 141.166 41.0376 141.166 38V6Z" fill="white"/>
<path d="M141.166 6C141.166 2.96243 143.628 0.5 146.666 0.5H198.999C202.037 0.5 204.499 2.96243 204.499 6V38C204.499 41.0376 202.037 43.5 198.999 43.5H146.666C143.628 43.5 141.166 41.0376 141.166 38V6Z" stroke="#D0D2D8"/>
<g opacity="0.3">
<path d="M151.748 30.5414V25.8118H150.33V24.3476H154.881V25.8118H153.462V30.5414H151.748ZM155.72 30.5414V24.3359H157.516C158.226 24.3359 158.71 24.3708 158.994 24.4289C159.266 24.487 159.514 24.6032 159.715 24.7543C159.94 24.9286 160.117 25.1378 160.235 25.405C160.353 25.6723 160.412 25.9628 160.412 26.2766C160.412 26.753 160.294 27.1481 160.058 27.4503C159.821 27.7524 159.467 27.95 159.006 28.0546L160.72 30.553H158.781L157.339 28.1243V30.553L155.72 30.5414ZM157.327 27.276H157.646C158.013 27.276 158.285 27.2179 158.462 27.09C158.628 26.9622 158.722 26.7763 158.722 26.509C158.722 26.1952 158.639 25.9745 158.486 25.8466C158.332 25.7188 158.06 25.6491 157.682 25.6491H157.339L157.327 27.276Z" fill="black"/>
<path d="M160.636 30.5417L162.811 24.3363H164.962L167.137 30.5417H165.435L165.116 29.4261H162.669L162.338 30.5417H160.636ZM163.036 28.2292H164.749L164.111 26.184C164.076 26.0794 164.052 25.9864 164.028 25.8818L163.898 25.3473C163.863 25.4983 163.827 25.6494 163.792 25.7889C163.757 25.9283 163.721 26.0561 163.686 26.184L163.036 28.2292ZM167.74 30.5417V24.3363H169.395L171.782 27.5203C171.829 27.5901 171.9 27.7179 172.007 27.9154C172.113 28.113 172.231 28.3454 172.35 28.6127C172.314 28.3803 172.29 28.1595 172.279 27.9271C172.267 27.7295 172.255 27.5436 172.255 27.3925V24.3246H173.91V30.5301H172.255L169.867 27.3228C169.82 27.2531 169.737 27.1252 169.631 26.9277C169.525 26.7301 169.406 26.4977 169.288 26.2304C169.324 26.4861 169.347 26.7185 169.359 26.9161C169.371 27.1136 169.383 27.2995 169.383 27.4506V30.5185H167.74V30.5417ZM175.541 28.543C175.801 28.8335 176.049 29.0426 176.297 29.1821C176.546 29.3215 176.794 29.3913 177.042 29.3913C177.267 29.3913 177.456 29.3332 177.609 29.2053C177.763 29.0891 177.834 28.9264 177.834 28.7405C177.834 28.5313 177.775 28.3803 177.645 28.2641C177.515 28.1479 177.231 28.0316 176.77 27.9154C176.155 27.7527 175.718 27.5436 175.458 27.2763C175.198 27.009 175.08 26.6488 175.08 26.1956C175.08 25.6029 175.281 25.1149 175.683 24.743C176.085 24.3711 176.605 24.1852 177.255 24.1852C177.597 24.1852 177.928 24.2317 178.248 24.3246C178.555 24.4176 178.85 24.5571 179.134 24.743L178.59 25.9632C178.413 25.8121 178.212 25.6843 177.988 25.5913C177.798 25.51 177.586 25.4635 177.373 25.4635C177.172 25.4635 176.995 25.51 176.865 25.6145C176.746 25.6959 176.664 25.8353 176.676 25.9864C176.676 26.1375 176.735 26.2653 176.841 26.3583C176.959 26.4512 177.172 26.5442 177.503 26.6255L177.586 26.6488C178.283 26.8347 178.744 27.0439 178.969 27.2647C179.122 27.4157 179.229 27.6017 179.311 27.8109C179.394 28.02 179.43 28.2641 179.43 28.5197C179.43 29.1821 179.205 29.705 178.768 30.1117C178.33 30.5068 177.739 30.716 177.006 30.716C176.569 30.716 176.167 30.6463 175.801 30.4952C175.446 30.3442 175.092 30.1234 174.761 29.8096C174.773 29.798 175.541 28.543 175.541 28.543ZM180.387 30.5417V24.3363H184.252V25.7075H182.065V26.7882H184.134V28.113H182.065V30.5533L180.387 30.5417ZM185.186 30.5417V24.3363H189.051V25.7075H186.864V26.7882H188.933V28.113H186.864V29.1589H189.051V30.5533L185.186 30.5417ZM190.197 30.5417V24.3363H191.994C192.703 24.3363 193.188 24.3711 193.471 24.4292C193.743 24.4873 193.991 24.6035 194.192 24.7546C194.417 24.9289 194.594 25.1381 194.712 25.4054C194.831 25.6726 194.902 25.9632 194.902 26.2769C194.902 26.7534 194.783 27.1485 194.547 27.4506C194.311 27.7527 193.956 27.9503 193.495 28.0549L195.209 30.5533H193.27L191.828 28.1246V30.5533L190.197 30.5417ZM191.805 27.2763H192.124C192.49 27.2763 192.762 27.2182 192.939 27.0904C193.105 26.9625 193.2 26.7766 193.2 26.5093C193.2 26.1956 193.117 25.9748 192.963 25.847C192.809 25.7191 192.538 25.6494 192.159 25.6494H191.817V27.2763H191.805ZM170.045 14.2611L171.191 18.5143C171.25 18.7119 171.298 18.9094 171.345 19.1186C171.392 19.3278 171.439 19.5602 171.487 19.8391C171.546 19.5253 171.605 19.258 171.64 19.0489C171.688 18.8397 171.723 18.6654 171.77 18.5143L172.846 14.2611H175.352L172.775 23.2207H170.47L169.347 19.3975C169.3 19.258 169.241 19.0024 169.146 18.6073C169.099 18.433 169.075 18.2935 169.052 18.2005L168.969 18.5608C168.898 18.8397 168.827 19.1186 168.756 19.3975L167.645 23.2207H165.317L162.752 14.2611H165.258L166.298 18.5492C166.345 18.77 166.392 18.9908 166.44 19.2115C166.487 19.4323 166.534 19.6531 166.57 19.8855C166.664 19.4323 166.771 18.9907 166.889 18.5492L168.035 14.2611C168.047 14.2611 170.045 14.2611 170.045 14.2611ZM176.274 23.2207V14.2611H178.779V23.2207H176.274ZM180.777 23.2207V14.2611H183.377C184.394 14.2611 185.103 14.3076 185.505 14.4006C185.907 14.4935 186.25 14.6446 186.545 14.8654C186.876 15.1094 187.136 15.4348 187.301 15.8067C187.479 16.1902 187.561 16.6085 187.561 17.0617C187.561 17.759 187.384 18.3168 187.041 18.7583C186.699 19.1883 186.19 19.4788 185.528 19.6183L188.011 23.2323H185.209L183.117 19.7229V23.2323H180.777V23.2207ZM183.105 18.4911H183.566C184.098 18.4911 184.488 18.3981 184.737 18.2238C184.985 18.0495 185.103 17.759 185.103 17.3755C185.103 16.9223 184.985 16.6085 184.76 16.4226C184.524 16.2366 184.146 16.1437 183.602 16.1437H183.105V18.4911ZM188.956 23.2207V14.2611H194.535V16.225H191.379V17.7822H194.358V19.6996H191.379V21.2103H194.535V23.2207H188.956ZM161.771 14.1914H150.412V15.9694H161.771V14.1914ZM161.771 17.6428H150.412V19.4207H161.771V17.6428ZM161.771 21.3962H150.412V23.1742H161.771V21.3962Z" fill="black"/>
</g>
<rect x="211.5" y="0.5" width="63.3333" height="43" rx="5.5" fill="white"/>
<rect x="211.5" y="0.5" width="63.3333" height="43" rx="5.5" stroke="#D0D2D8"/>
<path opacity="0.3" fill-rule="evenodd" clip-rule="evenodd" d="M222.268 15.582L216.387 28.8677H223.427L224.3 26.7494H226.295L227.167 28.8677H234.917V27.251L235.607 28.8677H239.616L240.306 27.2168V28.8677H256.422L258.382 26.8044L260.217 28.8677L268.495 28.8848L262.595 22.262L268.495 15.582H260.345L258.438 17.6072L256.66 15.582H239.128L237.623 19.0112L236.082 15.582H229.056V17.1438L228.275 15.582H222.268ZM223.63 17.4686H227.061L230.962 26.4777V17.4686H234.721L237.734 23.9281L240.511 17.4686H244.251V27.002H241.975L241.957 19.5317L238.639 27.002H236.603L233.266 19.5317V27.002H228.584L227.696 24.8647H222.9L222.014 27.0001H219.506L223.63 17.4686ZM255.589 17.4686H246.334V26.9964H255.445L258.382 23.8387L261.213 26.9964H264.171L259.871 22.2601L264.171 17.4686H261.341L258.419 20.59L255.589 17.4686ZM225.299 19.0816L223.719 22.889H226.877L225.299 19.0816ZM248.619 21.1828V19.4425V19.4408H254.394L256.914 22.224L254.282 25.0224H248.619V23.1225H253.668V21.1828H248.619Z" fill="black"/>
<rect x="281.834" y="0.5" width="63.3333" height="43" rx="5.5" fill="white"/>
<rect x="281.834" y="0.5" width="63.3333" height="43" rx="5.5" stroke="#D0D2D8"/>
<path opacity="0.3" fill-rule="evenodd" clip-rule="evenodd" d="M299.09 15.2945C298.544 15.9396 297.671 16.4485 296.797 16.3758C296.688 15.5035 297.116 14.5766 297.616 14.0042C298.162 13.3409 299.118 12.8684 299.891 12.832C299.982 13.7407 299.627 14.6312 299.09 15.2945ZM299.882 16.5484C299.112 16.5042 298.41 16.7795 297.843 17.0019C297.478 17.1451 297.169 17.2663 296.934 17.2663C296.67 17.2663 296.348 17.1386 295.986 16.9952C295.513 16.8074 294.972 16.5926 294.404 16.6029C293.103 16.6211 291.892 17.3571 291.228 18.5293C289.863 20.8736 290.873 24.3447 292.193 26.2529C292.839 27.1979 293.612 28.2337 294.631 28.1974C295.08 28.1805 295.402 28.0438 295.736 27.9024C296.12 27.7396 296.52 27.5704 297.143 27.5704C297.745 27.5704 298.126 27.7352 298.493 27.8933C298.841 28.0437 299.176 28.1881 299.673 28.1792C300.728 28.161 301.393 27.2342 302.039 26.2892C302.736 25.275 303.042 24.2851 303.089 24.1349L303.094 24.1175C303.093 24.1164 303.085 24.1125 303.069 24.1055C302.836 23.999 301.055 23.1846 301.038 21.0008C301.021 19.1679 302.451 18.2392 302.676 18.093C302.69 18.0841 302.699 18.0781 302.703 18.075C301.793 16.7302 300.373 16.5848 299.882 16.5484ZM307.189 28.0793V13.9133H312.513C315.261 13.9133 317.181 15.8033 317.181 18.5656C317.181 21.328 315.224 23.2361 312.44 23.2361H309.391V28.0793H307.189ZM309.391 15.767H311.93C313.841 15.767 314.933 16.7847 314.933 18.5747C314.933 20.3648 313.841 21.3916 311.921 21.3916H309.391V15.767ZM324.452 26.3801C323.869 27.4886 322.586 28.1883 321.203 28.1883C319.156 28.1883 317.727 26.9707 317.727 25.1352C317.727 23.3179 319.11 22.273 321.667 22.1185L324.415 21.9549V21.1735C324.415 20.0195 323.66 19.3925 322.313 19.3925C321.203 19.3925 320.393 19.965 320.23 20.8373H318.246C318.309 19.0018 320.038 17.6661 322.377 17.6661C324.898 17.6661 326.536 18.9836 326.536 21.0281V28.0793H324.497V26.3801H324.452ZM321.795 26.5073C320.621 26.5073 319.874 25.9439 319.874 25.0807C319.874 24.1902 320.593 23.6723 321.967 23.5905L324.415 23.436V24.2356C324.415 25.5623 323.287 26.5073 321.795 26.5073ZM333.297 28.6336C332.414 31.1142 331.404 31.932 329.257 31.932C329.093 31.932 328.547 31.9138 328.419 31.8775V30.1783C328.556 30.1964 328.893 30.2146 329.065 30.2146C330.039 30.2146 330.585 29.8057 330.922 28.7426L331.122 28.1156L327.391 17.8024H329.693L332.287 26.1711H332.332L334.926 17.8024H337.164L333.297 28.6336Z" fill="black"/>
<rect x="352.166" y="0.5" width="63.3333" height="43" rx="5.5" fill="white"/>
<rect x="352.166" y="0.5" width="63.3333" height="43" rx="5.5" stroke="#D0D2D8"/>
<path opacity="0.3" fill-rule="evenodd" clip-rule="evenodd" d="M397.643 21.8795C397.643 29.9139 391.075 36.427 382.974 36.427C374.872 36.427 368.305 29.9139 368.305 21.8795C368.305 13.8452 374.872 7.33203 382.974 7.33203C391.075 7.33203 397.643 13.8452 397.643 21.8795ZM386.498 16.4746C388.539 17.1695 390.031 18.2101 389.738 20.1465C389.526 21.5645 388.73 22.2503 387.673 22.4905C389.123 23.2363 389.618 24.6518 389.158 26.3634C388.286 28.8265 386.213 29.0338 383.457 28.519L382.787 31.1667L381.171 30.7684L381.831 28.1561C381.412 28.0533 380.984 27.9433 380.543 27.8259L379.88 30.4509L378.266 30.0525L378.934 27.3994L375.679 26.588L376.482 24.7598C376.482 24.7598 377.674 25.0718 377.657 25.049C378.115 25.1609 378.318 24.8662 378.399 24.6707L380.213 17.4842C380.233 17.145 380.114 16.7175 379.459 16.5556C379.484 16.5383 378.285 16.2672 378.285 16.2672L378.715 14.5618L381.975 15.3595L382.638 12.7363L384.253 13.1347L383.604 15.706C384.039 15.8034 384.475 15.9025 384.899 16.0071L385.544 13.4522L387.16 13.8505L386.498 16.4746ZM382.631 20.8504C383.732 21.1398 386.127 21.7696 386.545 20.1183C386.971 18.4288 384.644 17.9186 383.504 17.6687L383.504 17.6687L383.504 17.6687C383.375 17.6404 383.261 17.6154 383.168 17.5925L382.364 20.7814C382.44 20.8002 382.53 20.8239 382.631 20.8504ZM381.384 25.9847C382.702 26.3291 385.586 27.0824 386.045 25.2628C386.515 23.4023 383.719 22.7826 382.355 22.4802L382.354 22.4802L382.354 22.4801C382.202 22.4464 382.067 22.4166 381.957 22.3895L381.07 25.904C381.16 25.9262 381.266 25.9538 381.384 25.9847L381.384 25.9847Z" fill="black"/>
</svg>
