<?xml version="1.0" encoding="utf-8"?><svg xmlns="http://www.w3.org/2000/svg" viewBox="0 0 24 24"><path fill="#4A4A4A" fill-rule="evenodd" d="M22 13V7c0-1.654-1.346-3-3-3H5C3.346 4 2 5.346 2 7v10c0 1.654 1.346 3 3 3h14c1.654 0 3-1.346 3-3v-4Z" clip-rule="evenodd"/><path fill="#A5A8AB" fill-rule="evenodd" d="M16.08 9.049c-.012.071-.024.144-.039.219-.49 2.525-2.175 3.398-4.323 3.398h-1.095a.53.53 0 0 0-.525.45l-.56 3.553-.159 1.007a.28.28 0 0 0 .276.324h1.941c.23 0 .425-.167.462-.394l.018-.098.365-2.319.024-.128a.467.467 0 0 1 .462-.394h.29c1.881 0 3.352-.764 3.783-2.973.18-.923.087-1.694-.389-2.236a1.862 1.862 0 0 0-.53-.409" clip-rule="evenodd"/><path fill="#D2D3D5" fill-rule="evenodd" d="M15.566 8.843a4.9 4.9 0 0 0-.232-.06 5.715 5.715 0 0 0-.247-.046 6.031 6.031 0 0 0-.964-.07h-2.924a.463.463 0 0 0-.461.394l-.622 3.94-.018.114a.532.532 0 0 1 .526-.45h1.094c2.149 0 3.832-.873 4.324-3.398l.039-.218a2.525 2.525 0 0 0-.406-.17 2.794 2.794 0 0 0-.11-.036" clip-rule="evenodd"/><path fill="#fff" fill-rule="evenodd" d="M10.738 9.062a.467.467 0 0 1 .46-.394h2.925c.346 0 .67.022.965.07a3.694 3.694 0 0 1 .478.106c.037.01.074.023.11.034.145.049.28.105.405.17.146-.932-.001-1.568-.506-2.143C15.018 6.27 14.014 6 12.729 6h-3.73a.534.534 0 0 0-.527.45L6.919 16.3a.32.32 0 0 0 .316.37h2.303l.578-3.67.622-3.94Z" clip-rule="evenodd"/></svg>