<?xml version="1.0" encoding="UTF-8"?>
<svg version="1.1" xmlns="http://www.w3.org/2000/svg" width="64" height="64">
<path d="M0 0 C1.26650391 0.4630957 1.26650391 0.4630957 2.55859375 0.93554688 C8.72837612 3.28006417 8.72837612 3.28006417 11 6.6875 C11.49955495 11.02506997 11.41671197 15.3868231 11.4375 19.75 C11.47037109 20.94044922 11.50324219 22.13089844 11.53710938 23.35742188 C11.59049298 32.18512922 10.17447374 39.16458582 4.05493164 45.79492188 C-1.37538777 50.93487645 -7.23114874 54.77354138 -14.8125 55.3125 C-22.87099864 54.94056929 -29.62594868 50.55397543 -35 44.75 C-41.48892195 37.1092944 -41.4940071 29.65243944 -41.4375 20 C-41.45748047 18.77732422 -41.47746094 17.55464844 -41.49804688 16.29492188 C-41.49740234 15.12123047 -41.49675781 13.94753906 -41.49609375 12.73828125 C-41.49794678 11.67262939 -41.4997998 10.60697754 -41.50170898 9.5090332 C-40.87467439 5.98268831 -39.78721043 4.87323863 -37 2.6875 C-34.40987626 1.28511256 -31.65648506 0.39730823 -28.875 -0.5625 C-28.16601562 -0.830625 -27.45703125 -1.09875 -26.7265625 -1.375 C-17.17626963 -4.74165001 -9.27492998 -3.65264675 0 0 Z M-26.8125 4.625 C-27.58787109 4.90279297 -28.36324219 5.18058594 -29.16210938 5.46679688 C-32.86139334 6.5915485 -32.86139334 6.5915485 -36 8.6875 C-37.11569367 18.78509117 -38.19359569 28.54596983 -33.375 37.8125 C-29.41823001 42.6022742 -24.32509203 48.4533357 -18 49.6875 C-11.69973556 49.97940414 -7.61078665 48.37639051 -2.7890625 44.37109375 C3.49945926 38.45329271 6.24152021 33.44008702 6.9140625 24.859375 C7.06099788 19.43612378 6.55704503 14.07798193 6 8.6875 C-5.89852435 3.14610686 -14.1007429 -0.11075265 -26.8125 4.625 Z " fill="#8F93A6" transform="translate(47,6.3125)"/>
<path d="M0 0 C2.25 0.25 2.25 0.25 4 1 C3.53234153 5.7190991 1.65065406 7.91832317 -1.5625 11.3125 C-2.80193359 12.63701172 -2.80193359 12.63701172 -4.06640625 13.98828125 C-4.70449219 14.65214844 -5.34257812 15.31601562 -6 16 C-9.78388518 15.21301548 -11.54644327 14.06694591 -14 11 C-14 9.68 -14 8.36 -14 7 C-12.35 7 -10.7 7 -9 7 C-9 7.66 -9 8.32 -9 9 C-8.2575 8.2575 -7.515 7.515 -6.75 6.75 C-5.8425 5.8425 -4.935 4.935 -4 4 C-3.319375 3.21625 -2.63875 2.4325 -1.9375 1.625 C-1.298125 1.08875 -0.65875 0.5525 0 0 Z " fill="#1B264A" transform="translate(37,24)"/>
</svg>
