<svg xmlns="http://www.w3.org/2000/svg" xmlns:xlink="http://www.w3.org/1999/xlink" width="262" zoomAndPan="magnify" viewBox="0 0 196.5 196.499993" height="262" preserveAspectRatio="xMidYMid meet" version="1.0"><defs><clipPath id="de53b50cc6"><path d="M 0.210938 0.75 L 196 0.75 L 196 196 L 0.210938 196 Z M 0.210938 0.75 " clip-rule="nonzero" data-index="0" style="visibility: visible;"></path></clipPath><clipPath id="5025216e65"><path d="M 0.210938 0.75 L 196 0.75 L 196 196 L 0.210938 196 Z M 0.210938 0.75 " clip-rule="nonzero" data-index="1" style="visibility: visible;"></path></clipPath><clipPath id="6e2c619b1f"><rect x="0" width="196" y="0" height="196"></rect></clipPath><clipPath id="63c199ba64"><path d="M 0.210938 0.75 L 195.992188 0.75 L 195.992188 196 L 0.210938 196 Z M 0.210938 0.75 " clip-rule="nonzero" data-index="2" style="visibility: visible;"></path></clipPath><clipPath id="9a9451b095"><path d="M 37 55 L 156 55 L 156 161 L 37 161 Z M 37 55 " clip-rule="nonzero" data-index="3" style="visibility: visible;"></path></clipPath><clipPath id="8a0d356337"><path d="M 37.308594 55.675781 L 124.835938 5.296875 L 184.921875 109.683594 L 97.390625 160.0625 Z M 37.308594 55.675781 " clip-rule="nonzero" data-index="4" style="visibility: visible;"></path></clipPath><clipPath id="a737147239"><path d="M 37.300781 55.664062 L 124.832031 5.285156 L 184.914062 109.671875 L 97.382812 160.050781 Z M 37.300781 55.664062 " clip-rule="nonzero" data-index="5" style="visibility: visible;"></path></clipPath></defs><path fill="#ffffff" d="M 0 0 L 196 0 L 196 196 L 0 196 Z M 0 0 " fill-opacity="1" fill-rule="nonzero" data-index="7" style="visibility: hidden; opacity: 1;"></path><g clip-path="url(#de53b50cc6)"><g transform="matrix(1, 0, 0, 1, 0, 0)"><g clip-path="url(#6e2c619b1f)"><g clip-path="url(#5025216e65)"></g></g></g></g><g clip-path="url(#63c199ba64)"><path stroke-linecap="butt" transform="matrix(0.748096, 0, 0, 0.748096, 0.212353, 0.748096)" fill="none" stroke-linejoin="miter" d="M -0.00189201 0.00254461 L 261.704023 0.00254461 L 261.704023 261.703238 L -0.00189201 261.703238 Z M -0.00189201 0.00254461 " stroke="#2efc86" stroke-width="20" stroke-opacity="1" stroke-miterlimit="4" data-index="9" style="visibility: visible; opacity: 1;"></path></g><g clip-path="url(#9a9451b095)"><g clip-path="url(#8a0d356337)"><g clip-path="url(#a737147239)"><path fill="#2efc86" d="M 110.769531 82.957031 L 67.78125 82.324219 L 60.191406 69.136719 L 110.878906 69.898438 L 118.058594 69.996094 L 147.75 70.492188 L 155.015625 57.492188 L 125.304688 57.0625 L 48.859375 55.878906 L 37.320312 55.703125 L 60.105469 95.285156 L 62.839844 95.296875 L 62.945312 95.289062 L 75.359375 95.492188 L 85.957031 95.679688 L 103.527344 95.945312 L 104.980469 93.300781 L 103.527344 95.945312 L 118.371094 96.164062 L 97.335938 133.675781 L 82.855469 108.511719 L 67.695312 108.472656 L 89.867188 146.988281 L 97.46875 160.199219 L 140.484375 83.4375 L 130.914062 83.296875 L 125.660156 83.207031 Z M 110.769531 82.957031 " fill-opacity="1" fill-rule="nonzero" data-index="10" style="visibility: visible;"></path></g></g></g></svg>