<svg xmlns="http://www.w3.org/2000/svg" style="filter: grayscale(100%);" viewBox="0 0 24 24"><path d="M5.306 20H5a3 3 0 0 1-3-3V7a3 3 0 0 1 3-3h4.026l-3.72 16Z" style="fill:#ed171f;fill-rule:evenodd"/><path d="M15.325 4H19a3 3 0 0 1 3 3v10a3 3 0 0 1-3 3h-7.395l3.72-16Z" style="fill:#006a65;fill-rule:evenodd"/><path d="M9.026 4h6.3l-3.721 16h-6.3l3.72-16z" style="fill:#082f67;fill-rule:evenodd"/><path d="M16.595 15.573h-.187l.696-2.301h.231l.073-.237.007.263c-.007.163.12.308.457.284h.39l.133-.444h-.146c-.083 0-.122-.021-.118-.066l-.008-.27h-.72v.002c-.23.005-.93.023-1.072.06a1.26 1.26 0 0 0-.35.174l.07-.239h-.675l-.141.473-.706 2.337h-.136l-.135.44h1.345l-.045.148h.662l.044-.148h.187l.144-.476Zm-.841.007h-.538l.155-.517h.538l-.155.517Zm.3-1s-.168.021-.278.047c-.11.032-.314.137-.314.137l.184-.612h.539l-.131.428Zm-.01-.84c-.109.03-.309.12-.309.12l.179-.588h.537l-.13.428s-.166.011-.276.04Z" style="fill:#fff"/><path d="M17.05 14.151h.775l-.112.36h-.785l-.118.396h.687l-.52.732a.214.214 0 0 1-.106.089.304.304 0 0 1-.14.04h-.19l-.132.432h.5a.609.609 0 0 0 .526-.272l.357-.49.077.497a.237.237 0 0 0 .127.17c.05.023.102.066.176.072.077.004.133.008.17.008h.246l.147-.485h-.097c-.055 0-.15-.008-.167-.027-.015-.021-.017-.053-.025-.102l-.077-.498h-.318l.138-.166h.786l.12-.396h-.726l.113-.36h.724l.135-.445h-2.158l-.133.445Zm-6.549 1.529.18-.602h.744l.136-.449h-.745l.114-.369h.727l.135-.434h-1.82l-.132.434h.414l-.11.37h-.416l-.137.456h.413l-.24.797c-.032.104.014.144.045.194.031.048.062.08.133.097a.812.812 0 0 0 .19.026h.84l.15-.496-.373.052c-.072 0-.27-.01-.248-.076Zm.084-2.882-.187.34a.395.395 0 0 1-.11.142c-.029.018-.085.025-.168.025h-.099l-.132.437h.327a.74.74 0 0 0 .336-.087c.061-.033.078-.014.125-.06l.11-.095h1.02l.136-.454h-.746l.13-.248h-.742Zm1.506 2.889c-.017-.024-.004-.067.022-.158l.28-.924h.99c.145-.001.249-.004.317-.01a.65.65 0 0 0 .238-.08.44.44 0 0 0 .175-.16 1.33 1.33 0 0 0 .17-.387l.35-1.167-1.028.005s-.317.047-.457.1c-.14.057-.34.217-.34.217l.092-.32h-.636l-.89 2.953a1.719 1.719 0 0 0-.058.247c-.002.054.068.106.114.147.052.04.13.035.206.04.08.007.193.01.348.01h.49l.149-.506-.437.04a.114.114 0 0 1-.095-.047Zm.69-2.4h1.05l-.075.248s-.496-.005-.575.01c-.348.061-.552.247-.552.247l.152-.506Zm-.21.695h1.043l-.067.207c-.01.005-.031-.01-.138.004h-.901l.063-.21Z" style="fill:#fff"/><path d="M13.572 14.884a.13.13 0 0 1-.042.065.217.217 0 0 1-.106.018h-.15l.009-.252h-.617l-.024 1.235c-.002.089.006.141.07.182.067.053.268.059.539.059h.387l.139-.463-.337.02-.111.004a.113.113 0 0 1-.047-.027c-.014-.015-.039-.005-.034-.096l.003-.317.352-.014a.46.46 0 0 0 .342-.12c.066-.057.088-.124.114-.21l.058-.281h-.485l-.06.197Zm-7.449-6.38c-.587.007-.759 0-.815-.012-.022.1-.418 1.928-.42 1.929-.085.37-.146.634-.357.803a.642.642 0 0 1-.42.147c-.26 0-.413-.13-.44-.375l-.004-.083.08-.499s.416-1.665.49-1.885l.007-.025c-.81.008-.954 0-.963-.012a3.86 3.86 0 0 0-.026.12l-.425 1.876-.037.16-.07.52c0 .154.031.281.091.388.194.338.746.389 1.058.389.402 0 .778-.086 1.033-.241.442-.262.559-.672.662-1.034l.048-.186s.428-1.73.502-1.955a.092.092 0 0 1 .006-.025ZM7.581 9.9c-.103 0-.292.024-.461.107-.063.032-.12.069-.181.104l.054-.2-.03-.033c-.36.074-.44.083-.772.13l-.027.018c-.04.32-.073.56-.216 1.188-.054.231-.111.465-.168.697l.016.028a8.99 8.99 0 0 1 .739-.013l.024-.025c.037-.193.042-.238.126-.627.038-.186.12-.592.16-.736.074-.034.146-.068.216-.068.165 0 .146.145.14.203a7.443 7.443 0 0 1-.13.684l-.041.174c-.028.13-.06.256-.09.383l.013.025a8.67 8.67 0 0 1 .724-.013l.034-.025c.051-.301.066-.381.158-.82l.047-.2c.09-.393.135-.594.066-.756-.072-.182-.244-.226-.4-.226Zm1.627.412c-.178.033-.292.055-.405.072l-.392.057-.015.013-.013.01c-.016.128-.03.239-.052.37a8.435 8.435 0 0 1-.104.507c-.038.169-.06.228-.081.286-.021.06-.046.118-.09.284l.01.014.01.014c.16-.007.266-.013.374-.014.11-.003.22 0 .393.001l.016-.012.015-.013c.026-.15.03-.19.045-.264.016-.077.04-.185.106-.474.03-.137.063-.272.095-.41l.1-.41-.005-.016-.007-.015Zm.982 1.658c.329 0 .665-.091.916-.359.196-.217.285-.54.316-.673.1-.442.023-.648-.076-.774-.15-.19-.413-.253-.687-.253-.165 0-.557.017-.864.3-.22.204-.322.48-.384.745-.061.27-.133.758.315.939.138.058.336.074.465.074Zm-.024-.993c.075-.335.165-.615.392-.615.179 0 .19.209.113.544-.016.074-.08.351-.17.47-.06.085-.133.138-.214.138-.023 0-.165 0-.167-.21-.002-.105.02-.212.046-.327Zm6.429.018c-.062.266-.133.753.312.927.14.06.27.077.398.072.136-.008.262-.08.379-.178-.011.042-.02.083-.032.124l.022.026c.32-.013.42-.013.766-.01l.031-.025c.05-.297.099-.587.231-1.156.063-.272.128-.543.194-.814l-.011-.03c-.359.067-.454.08-.798.13l-.026.021-.013.094a.479.479 0 0 0-.25-.22c-.152-.06-.513.017-.82.298-.218.203-.322.477-.383.741Zm.754.017c.075-.328.164-.607.392-.607.148 0 .22.146.199.385-.012.052-.021.099-.036.16-.023.102-.051.202-.077.303a.662.662 0 0 1-.078.158.396.396 0 0 1-.28.136c-.022 0-.163 0-.168-.209 0-.102.02-.21.048-.326Zm-5.109.914.026-.025c.037-.193.042-.238.124-.627.04-.186.122-.592.162-.736.074-.034.146-.068.217-.068.164 0 .145.145.139.203a7.19 7.19 0 0 1-.13.684l-.04.174c-.03.13-.063.256-.092.383l.013.025a8.7 8.7 0 0 1 .723-.013l.036-.025c.05-.301.064-.381.158-.82l.045-.2c.09-.393.136-.594.069-.756-.074-.182-.247-.226-.404-.226a1.12 1.12 0 0 0-.46.108c-.061.032-.121.069-.18.104l.052-.2-.029-.033c-.359.074-.44.083-.772.13l-.026.018c-.04.32-.074.56-.216 1.188-.055.231-.11.465-.167.697l.016.028c.34-.017.441-.017.737-.013Zm2.472.013c.02-.103.148-.715.148-.715s.108-.45.114-.466c0 0 .033-.046.068-.064h.05c.466 0 .994 0 1.407-.305.28-.209.475-.517.56-.89.023-.092.039-.202.039-.311a.649.649 0 0 0-.113-.396c-.21-.296-.63-.3-1.115-.303l-.239.003c-.62.007-.87.004-.971-.008l-.026.126-.222 1.032-.557 2.293c.542-.006.764-.006.857.004Zm.412-1.83.236-1.025.007-.052.004-.04.095.01.499.043c.192.073.27.266.215.517a.754.754 0 0 1-.389.514c-.158.079-.35.085-.549.085h-.127l.01-.051Zm6.152-.181-.028-.03a8.56 8.56 0 0 1-.744.125l-.024.024a.113.113 0 0 0-.003.015l-.002-.005c-.243.56-.235.44-.433.88l-.002-.055-.049-.954-.031-.03c-.37.07-.38.082-.723.125l-.027.024c-.003.012-.004.025-.006.038l.003.005c.043.22.033.17.075.516.02.169.047.34.067.507.034.28.053.42.093.846-.23.383-.286.528-.507.864l-.156.25c-.019.026-.035.044-.057.05a.244.244 0 0 1-.104.016h-.087l-.129.43.444.008c.26-.001.424-.124.512-.287l.28-.477h-.006l.03-.034c.187-.403 1.614-2.85 1.614-2.85ZM9.212 9.755c-.163-.095-.445-.065-.637.067-.192.13-.213.314-.053.41.161.093.445.066.636-.067.19-.132.214-.315.054-.41Z" style="fill:#fff"/></svg>