<svg style="filter: grayscale(100%);" viewBox="0 0 24 24" fill="none" xmlns="http://www.w3.org/2000/svg">
    <path d="M22 13V7C22 5.3457 20.6543 4 19 4H5C3.3457 4 2 5.3457 2 7V17C2 18.6543 3.3457 20 5 20H19C20.6543 20 22 18.6543 22 17V13Z" fill="#F1F1F1"/>
    <path d="M11.895 6.345L5.83497 9.595C5.76497 9.635 5.71497 9.715 5.71497 9.795V10.335C5.71497 10.455 5.81497 10.555 5.93497 10.555H18.055C18.175 10.555 18.275 10.455 18.275 10.335V9.795C18.275 9.715 18.225 9.635 18.155 9.595L12.095 6.345C12.025 6.305 11.945 6.305 11.885 6.345H11.895ZM12.005 9.085C11.575 9.085 11.225 8.735 11.225 8.305C11.225 7.875 11.575 7.525 12.005 7.525C12.435 7.525 12.785 7.875 12.785 8.305C12.785 8.735 12.435 9.085 12.005 9.085Z" fill="#2F6EB4"/>
    <path d="M8.53499 12.305C8.53499 12.0123 8.29993 11.775 8.00999 11.775C7.72004 11.775 7.48499 12.0123 7.48499 12.305V14.875C7.48499 15.1677 7.72004 15.405 8.00999 15.405C8.29993 15.405 8.53499 15.1677 8.53499 14.875V12.305Z" fill="#50B299"/>
    <path d="M16.515 12.305C16.515 12.0123 16.2799 11.775 15.99 11.775C15.7 11.775 15.465 12.0123 15.465 12.305V14.875C15.465 15.1677 15.7 15.405 15.99 15.405C16.2799 15.405 16.515 15.1677 16.515 14.875V12.305Z" fill="#50B299"/>
    <path d="M13.8551 12.305C13.8551 12.0123 13.62 11.775 13.3301 11.775C13.0401 11.775 12.8051 12.0123 12.8051 12.305V14.875C12.8051 15.1677 13.0401 15.405 13.3301 15.405C13.62 15.405 13.8551 15.1677 13.8551 14.875V12.305Z" fill="#50B299"/>
    <path d="M11.195 12.305C11.195 12.0123 10.96 11.775 10.67 11.775C10.3801 11.775 10.145 12.0123 10.145 12.305V14.875C10.145 15.1677 10.3801 15.405 10.67 15.405C10.96 15.405 11.195 15.1677 11.195 14.875V12.305Z" fill="#50B299"/>
    <path d="M17.755 16.625H6.24497C5.95225 16.625 5.71497 16.8623 5.71497 17.155C5.71497 17.4477 5.95225 17.685 6.24497 17.685H17.755C18.0477 17.685 18.285 17.4477 18.285 17.155C18.285 16.8623 18.0477 16.625 17.755 16.625Z" fill="#2F6EB4"/>
</svg>
